<svg width="64" height="64" viewBox="0 0 64 64" fill="none" xmlns="http://www.w3.org/2000/svg">
<path d="M37.68 30.2373C37.9301 29.2496 37.9194 28.2139 37.6489 27.2316C37.3784 26.2493 36.8575 25.3541 36.137 24.6336C35.4166 23.9132 34.5214 23.3922 33.5391 23.1217C32.5568 22.8512 31.5211 22.8405 30.5334 23.0906C28.48 23.5973 26.8 25.2773 26.2934 27.3306C26.0433 28.3183 26.054 29.354 26.3245 30.3363C26.595 31.3186 27.116 32.2138 27.8364 32.9343C28.5568 33.6547 29.452 34.1757 30.4343 34.4462C31.4166 34.7167 32.4524 34.7274 33.44 34.4773C35.52 33.9706 37.2 32.2906 37.68 30.2373Z" fill="#F2815B"/>
<path opacity="0.4" d="M16.0534 47.9199C15.5734 47.9199 15.0667 47.7333 14.6934 47.3866C12.1325 45.0086 10.0888 42.1287 8.68951 38.9264C7.29021 35.7241 6.56534 32.2679 6.56006 28.7733C6.56006 14.7466 17.9734 3.33325 32.0001 3.33325C46.0267 3.33325 57.4401 14.7466 57.4401 28.7733C57.4401 35.8666 54.5867 42.4266 49.4134 47.3066C48.6134 48.0533 47.3334 48.0266 46.5867 47.2266C45.8401 46.4266 45.8667 45.1466 46.6667 44.3999C48.813 42.4093 50.5231 39.9952 51.689 37.3101C52.8548 34.6249 53.4511 31.7272 53.4401 28.7999C53.4401 16.9866 43.8134 7.35992 32.0001 7.35992C20.1867 7.35992 10.5601 16.9866 10.5601 28.7999C10.5601 34.8266 12.9867 40.3733 17.4134 44.4799C18.2134 45.2266 18.2667 46.5066 17.5201 47.3066C17.1317 47.6972 16.6042 47.9177 16.0534 47.9199Z" fill="#F2815B"/>
<path opacity="0.4" d="M42.6667 40.7972C42.2777 40.7969 41.8973 40.6825 41.5726 40.4682C41.248 40.2539 40.9932 39.9491 40.84 39.5915C40.6868 39.234 40.6417 38.8393 40.7105 38.4564C40.7792 38.0735 40.9587 37.7192 41.2267 37.4372C43.4401 35.0906 44.6667 31.9972 44.6667 28.7972C44.6667 21.8106 38.9867 16.1572 32.0267 16.1572C28.6765 16.1643 25.4656 17.4982 23.0967 19.8672C20.7277 22.2361 19.3938 25.4471 19.3867 28.7972C19.3867 32.0239 20.6134 35.0906 22.8267 37.4372C23.5734 38.2372 23.5467 39.5172 22.7467 40.2639C21.9467 41.0372 20.6667 40.9839 19.9201 40.1839C17.0127 37.1049 15.3912 33.0319 15.3867 28.7972C15.3867 19.6239 22.8534 12.1572 32.0267 12.1572C41.2001 12.1572 48.6667 19.6239 48.6667 28.7972C48.6667 33.0372 47.0667 37.0906 44.1334 40.1839C43.745 40.5745 43.2175 40.795 42.6667 40.7972Z" fill="#F2815B"/>
<path d="M27.4667 44.4293L23.6267 49.2026C20.5867 53.0159 23.2801 58.6426 28.1601 58.6426H35.8134C40.6934 58.6426 43.4134 52.9893 40.3467 49.2026L36.5067 44.4293C34.2134 41.5226 29.7867 41.5226 27.4667 44.4293Z" fill="#F2815B"/>
</svg>
