<svg width="486" height="484" viewBox="0 0 486 484" fill="none" xmlns="http://www.w3.org/2000/svg">
<g clip-path="url(#clip0_4708_54471)">
<path d="M143.47 155.97H289.31C289.37 155.97 289.42 156.04 289.42 156.12V259.94H143.35V156.11C143.35 156.03 143.4 155.96 143.46 155.96" fill="url(#paint0_radial_4708_54471)"/>
<path d="M151.87 235.67H280.64V235.84H151.87V235.67ZM151.87 221.76H280.64V221.93H151.87V221.76ZM151.87 207.85H280.64V208.02H151.87V207.85ZM151.87 193.93H280.64V194.1H151.87V193.93ZM193.83 180.02H280.63V180.19H193.84V180.02H193.83ZM225.6 166.1H280.63V166.27H225.61V166.1H225.6Z" fill="#AD97C2"/>
<path fill-rule="evenodd" clip-rule="evenodd" d="M155.37 249.71L171.96 243.99L176.25 240.17L180.12 238.23H180.35C180.35 238.23 184.14 240.39 188.19 234.54C192.25 228.69 192.25 228.51 192.25 228.51C192.25 228.51 190.16 235.72 195.91 226.35C201.66 216.98 201.51 215.54 204.16 213.03C206.81 210.51 209.05 207.52 209.05 207.52C209.05 207.52 207.56 208.17 210.74 211.59C213.92 215.01 215.73 216.09 215.73 216.09L218.15 220.19L219.97 219.22L221.79 215.55C221.79 215.55 223.46 213.57 224.82 213.21C226.18 212.85 229.96 208.23 230.87 208.1C231.78 207.96 235.63 204.93 235.63 204.93C235.63 204.93 235.56 202.41 237.39 200.61C239.21 198.81 242.53 198.09 242.53 198.09H244.8C246.01 198.09 249.34 202.41 250.4 198.09C251.46 193.77 252.07 190.17 253.43 187.65C254.79 185.13 257.52 183.15 257.52 183.15H270.99C270.99 183.15 272.05 181.35 272.95 180.27C273.86 179.19 279.76 173.61 279.76 173.61V249.71H155.36H155.37Z" fill="#9556D4"/>
<path fill-rule="evenodd" clip-rule="evenodd" d="M155.37 249.71L173.68 247.77C173.68 247.77 174.13 247.05 176.1 246.51C178.06 245.97 177.21 249.39 180.36 246.51C183.52 243.63 183.21 243.27 184.88 243.09C186.55 242.91 186.09 245.61 190.48 243.09C194.87 240.57 197.89 236.12 197.89 236.12C197.89 236.12 201.37 231.75 204.25 230.68C207.12 229.6 209.85 228.34 209.85 228.34C209.85 228.34 211.67 229.24 212.88 229.96C214.09 230.68 215.37 235.79 216.48 232.06C217.58 228.33 217.43 230.13 219.09 228.88C220.76 227.62 223.94 228.88 223.94 228.88C223.94 228.88 228.18 225.28 229.08 224.56C229.99 223.84 229.68 224.02 232.86 220.6C236.04 217.18 239.67 215.56 239.67 215.56H257.23L259.88 218.71L261.47 216.82L263.14 211.67L266.17 208.1H269.04L271.76 207.52H274.79L279.78 200.79V249.71H155.37Z" fill="#EA8577"/>
<path d="M151.87 163.09V249.54H279.78V249.88H151.58V163.09H151.86H151.87Z" fill="white"/>
<path fill-rule="evenodd" clip-rule="evenodd" d="M159.94 164.58H217.55C218.68 164.58 219.6 165.68 219.6 167.02C219.6 168.36 218.68 169.46 217.55 169.46H159.94C158.81 169.46 157.89 168.36 157.89 167.02C157.89 165.68 158.81 164.58 159.94 164.58Z" fill="#9556D4"/>
<path fill-rule="evenodd" clip-rule="evenodd" d="M159.94 175.28H188.6C189.73 175.28 190.65 176.38 190.65 177.72C190.65 179.06 189.73 180.16 188.6 180.16H159.94C158.81 180.16 157.89 179.06 157.89 177.72C157.89 176.38 158.81 175.28 159.94 175.28Z" fill="#9556D4"/>
<path d="M129.43 0H382.38C382.48 0 382.57 0.09 382.57 0.19V137.64H129.24V0.19C129.24 0.09 129.33 0 129.43 0Z" fill="url(#paint1_radial_4708_54471)"/>
<path opacity="0.5" d="M382.57 111.01H129.24V137.63H382.57V111.01Z" fill="url(#paint2_radial_4708_54471)"/>
<path d="M331.85 117.01H136.98V117.31H331.84V117.01H331.85Z" fill="#AD97C2"/>
<path d="M331.85 129.63H136.98V129.94H331.84V129.63H331.85Z" fill="#AD97C2"/>
<path fill-rule="evenodd" clip-rule="evenodd" d="M340.12 129.13C342.73 128.91 345.41 126.99 345.42 126.98L345.89 127.44C345.89 127.44 343.01 129.51 340.12 129.74V129.13ZM137.1 130.7C137.12 130.64 145.63 111.29 151.68 114.7C154.21 116.12 155.98 117.85 157.47 119.3C159.27 121.05 160.63 122.37 162.3 122.12C163.99 121.86 166.01 121.62 168.02 121.78C170.06 121.93 172.06 122.5 173.67 123.87C174.81 124.83 175.51 125.77 176.17 126.67C177.31 128.2 178.35 129.6 181.43 130.69C184.37 131.73 187.3 126.12 189.75 121.42C191.08 118.87 192.27 116.59 193.33 115.66C193.39 115.6 193.45 115.56 193.51 115.5C195.01 114.25 196.64 113.77 198.22 113.87C199.79 113.96 201.29 114.61 202.57 115.65C202.63 115.71 202.71 115.76 202.77 115.82C204.19 117.04 207.28 118.97 210.63 120.37C213.05 121.39 215.6 122.13 217.74 122.13C221.48 122.13 223.76 125.44 225.59 128.11C226.43 129.33 227.17 130.41 227.87 130.9L227.98 130.97C230.22 132.53 233.61 134.88 235.96 133.92C236.95 133.51 238.66 131.71 240.67 129.61C243.68 126.46 247.33 122.65 250.38 121.65C252.88 120.83 256.18 118.77 259.09 116.94C261.95 115.15 264.43 113.59 265.61 113.59C267.23 113.59 271.75 117.54 275.43 120.77C277.17 122.29 278.72 123.65 279.66 124.34C280.5 124.95 281.58 125.84 282.74 126.81C285.63 129.21 289.05 132.06 290.3 131.85C291.18 131.71 293.47 130.12 295.84 128.22C298.46 126.12 301.15 123.64 302.18 122.27C303.19 120.92 304.8 118.81 307.25 117.28C309.72 115.74 313.03 114.8 317.4 115.85C317.62 115.91 317.84 115.96 318.06 116.02V116.66C317.77 116.58 317.5 116.5 317.21 116.44C313.11 115.46 310.01 116.34 307.69 117.78C305.35 119.24 303.79 121.29 302.81 122.6C301.75 124.02 299.02 126.54 296.36 128.67C293.9 130.64 291.49 132.29 290.45 132.46C288.83 132.72 285.25 129.75 282.24 127.25C281.09 126.29 280.01 125.4 279.19 124.81C278.23 124.11 276.66 122.74 274.91 121.21C271.32 118.06 266.93 114.21 265.61 114.21C264.66 114.21 262.27 115.71 259.52 117.44C256.58 119.29 253.24 121.38 250.65 122.23C247.78 123.17 244.21 126.91 241.25 130C239.19 132.15 237.43 134 236.3 134.47C233.52 135.61 229.92 133.11 227.54 131.45L227.43 131.38C226.63 130.82 225.86 129.7 224.98 128.43C223.24 125.91 221.08 122.76 217.76 122.76C215.5 122.76 212.84 121.99 210.33 120.94C206.9 119.5 203.75 117.52 202.27 116.27C202.21 116.22 202.15 116.17 202.09 116.12C200.93 115.18 199.59 114.59 198.19 114.51C196.81 114.43 195.37 114.86 194.04 115.97C193.98 116.02 193.93 116.07 193.87 116.11C192.9 116.96 191.73 119.2 190.43 121.69C187.85 126.64 184.77 132.55 181.17 131.28C177.88 130.11 176.78 128.64 175.58 127.02C174.94 126.15 174.26 125.24 173.18 124.33C171.7 123.08 169.86 122.56 167.97 122.42C166.05 122.28 164.09 122.51 162.44 122.76C160.36 123.07 158.89 121.64 156.94 119.74C155.48 118.32 153.74 116.63 151.29 115.25C146.02 112.27 137.82 130.91 137.8 130.96L137.12 130.75L137.1 130.73V130.7Z" fill="#9556D4"/>
<path fill-rule="evenodd" clip-rule="evenodd" d="M138.64 5.18994H201.43C202.66 5.18994 203.67 6.09994 203.67 7.21994C203.67 8.33994 202.66 9.24994 201.43 9.24994H138.64C137.41 9.24994 136.4 8.33994 136.4 7.21994C136.4 6.09994 137.41 5.18994 138.64 5.18994Z" fill="#AD97C2"/>
<path fill-rule="evenodd" clip-rule="evenodd" d="M138.64 14.09H169.88C171.11 14.09 172.12 15 172.12 16.12C172.12 17.24 171.11 18.15 169.88 18.15H138.64C137.41 18.15 136.4 17.24 136.4 16.12C136.4 15 137.41 14.09 138.64 14.09Z" fill="#AD97C2"/>
<path d="M192.64 47.13H185.13V77.6H192.64V47.13Z" fill="#9556D4"/>
<path d="M189.28 42.4301H188.47V82.3101H189.28V42.4301Z" fill="#9556D4"/>
<path d="M203.48 32.46H195.96V41.62H203.48V32.46Z" fill="#9556D4"/>
<path d="M200.13 26.41H199.32V53.03H200.13V26.41Z" fill="#9556D4"/>
<path d="M255.21 46.91H247.7V77.38H255.21V46.91Z" fill="#9556D4"/>
<path d="M251.86 42.2H251.05V82.08H251.86V42.2Z" fill="#9556D4"/>
<path d="M266.05 31.13H258.53V46.72H266.05V31.13Z" fill="#9556D4"/>
<path d="M262.69 31.13H261.88V53.16H262.69V31.13Z" fill="#9556D4"/>
<path d="M278.54 25.27H271.02V32.58H278.54V25.27Z" fill="#9556D4"/>
<path d="M275.18 17.24H274.37V44.71H275.18V17.24Z" fill="#9556D4"/>
<path d="M316.74 32.85H309.22V44.31H316.74V32.85Z" fill="#9556D4"/>
<path d="M313.38 29.3199H312.57V48.9199H313.38V29.3199Z" fill="#9556D4"/>
<path d="M149.89 65.58H142.38V96.06H149.89V65.58Z" fill="#9556D4"/>
<path d="M146.53 52.0699H145.72V98.2399H146.53V52.0699Z" fill="#9556D4"/>
<path fill-rule="evenodd" clip-rule="evenodd" d="M287.68 34.8101H288.49V36.2301H291.84V45.3901H288.49V46.8101H287.68V45.3901H284.33V36.2301H287.68V34.8101ZM300.24 38.3601H301.05V45.0801H304.4V61.5501H301.05V68.2701H300.24V61.5501H296.89V45.0801H300.24V38.3601ZM211.87 43.3601H212.68V45.9101H216.03V62.3801H212.68V64.9301H211.87V62.3801H208.52V45.9101H211.87V43.3601ZM224.9 59.0301H225.71V61.5401H229.06V77.8001H225.71V80.3101H224.9V77.8001H221.55V61.5401H224.9V59.0301ZM237.46 61.5901H238.27V75.9401H241.62V93.8501H238.27V96.4001H237.46V93.8501H234.11V75.9401H237.46V61.5901ZM162.75 62.7101H163.56V65.2601H166.91V81.7301H163.56V84.2801H162.75V81.7301H159.4V65.2601H162.75V62.7101ZM175.78 74.9201H176.59V79.8001H179.94V88.9601H176.59V93.8401H175.78V88.9601H172.43V79.8001H175.78V74.9201ZM322.17 55.0401H325.52V48.3201H326.33V55.0401H329.68V71.5101H326.33V78.2301H325.52V71.5101H322.17V55.0401Z" fill="#EA8577"/>
<path fill-rule="evenodd" clip-rule="evenodd" d="M237.71 98.77L240.85 104.48H234.57L237.71 98.77Z" fill="#F79646"/>
<path fill-rule="evenodd" clip-rule="evenodd" d="M274.77 12.4L271.87 7.12H277.68L274.77 12.4Z" fill="#9556D4"/>
<path fill-rule="evenodd" clip-rule="evenodd" d="M312.66 26.56L309.76 21.28H315.57L312.66 26.56Z" fill="#9556D4"/>
<path fill-rule="evenodd" clip-rule="evenodd" d="M176.56 96.84L179.7 102.54H173.42L176.56 96.84Z" fill="#F79646"/>
<path fill-rule="evenodd" clip-rule="evenodd" d="M300.39 72.85L303.53 78.56H297.25L300.39 72.85Z" fill="#F79646"/>
<path opacity="0.5" d="M382.57 0.189941H336.96V137.64H382.57V0.189941Z" fill="url(#paint3_radial_4708_54471)"/>
<path fill-rule="evenodd" clip-rule="evenodd" d="M373.68 90.8499C373.68 97.9099 367.37 103.63 359.6 103.63C351.83 103.63 345.53 97.9099 345.53 90.8499C345.53 83.7899 351.84 78.0699 359.6 78.0699V83.7999C355.31 83.7999 351.83 86.9499 351.83 90.8499C351.83 94.7499 355.31 97.8999 359.6 97.8999C363.89 97.8999 367.37 94.7499 367.37 90.8499H373.68Z" fill="#AD97C2"/>
<path fill-rule="evenodd" clip-rule="evenodd" d="M361.25 77.24C368.57 77.5 374.45 82.84 374.75 89.49H368.43C368.15 86.01 365.09 83.23 361.26 82.98V77.24H361.25Z" fill="#EA8577"/>
<path fill-rule="evenodd" clip-rule="evenodd" d="M345.88 124.38H354.98C356.98 124.38 358.61 125.87 358.61 127.68C358.61 129.49 356.97 130.98 354.98 130.98H345.88C343.88 130.98 342.25 129.49 342.25 127.68C342.25 125.87 343.89 124.38 345.88 124.38Z" fill="#9556D4"/>
<path fill-rule="evenodd" clip-rule="evenodd" d="M365.14 124.38H374.25C376.25 124.38 377.88 125.87 377.88 127.68C377.88 129.49 376.24 130.98 374.25 130.98H365.14C363.14 130.98 361.51 129.49 361.51 127.68C361.51 125.87 363.15 124.38 365.14 124.38Z" fill="#EA8577"/>
<path d="M377.37 111.01H342.22V118.69H377.37V111.01Z" fill="#9556D4"/>
<path d="M359.8 111.01H342.23V118.69H359.8V111.01Z" fill="#AD97C2"/>
<path fill-rule="evenodd" clip-rule="evenodd" d="M346.44 26.03H354.18C355.41 26.03 356.42 26.94 356.42 28.06C356.42 29.18 355.41 30.09 354.18 30.09H346.44C345.21 30.09 344.2 29.18 344.2 28.06C344.2 26.94 345.21 26.03 346.44 26.03Z" fill="#AD97C2"/>
<path fill-rule="evenodd" clip-rule="evenodd" d="M360.87 26.03H374.21C375.44 26.03 376.45 26.94 376.45 28.06C376.45 29.18 375.44 30.09 374.21 30.09H360.87C359.64 30.09 358.63 29.18 358.63 28.06C358.63 26.94 359.64 26.03 360.87 26.03Z" fill="#AD97C2"/>
<path d="M353.56 38.05H344.8V40.9001H353.56V38.05Z" fill="#9556D4"/>
<path d="M360.88 42.2H344.8V45.0499H360.88V42.2Z" fill="#9556D4"/>
<path d="M368.4 46.35H344.8V49.2H368.4V46.35Z" fill="#9556D4"/>
<path d="M374.56 50.5H344.8V53.35H374.56V50.5Z" fill="#9556D4"/>
<path d="M364.31 54.66H344.79V57.51H364.31V54.66Z" fill="#EA8577"/>
<path d="M371.05 58.8101H344.8V61.6601H371.05V58.8101Z" fill="#EA8577"/>
<path d="M373.66 62.97H344.8V65.82H373.66V62.97Z" fill="#EA8577"/>
<path d="M376.5 67.11H344.79V69.96H376.5V67.11Z" fill="#EA8577"/>
<path fill-rule="evenodd" clip-rule="evenodd" d="M335.25 221.86H360.12C361.78 221.86 363.13 223.33 363.13 225.14C363.13 226.95 361.78 228.42 360.12 228.42H335.25C333.6 228.42 332.24 226.95 332.24 225.14C332.24 223.33 333.59 221.86 335.25 221.86Z" fill="#AD97C2"/>
<path d="M314.57 144.41H461.05C461.11 144.41 461.16 144.47 461.16 144.55V240.16H314.46V144.55C314.46 144.48 314.51 144.41 314.57 144.41Z" fill="url(#paint4_radial_4708_54471)"/>
<path opacity="0.5" d="M461.15 144.41H428.77V240.02H461.15V144.41Z" fill="url(#paint5_radial_4708_54471)"/>
<path fill-rule="evenodd" clip-rule="evenodd" d="M438.06 198.48C438.06 203.39 441.71 207.37 446.21 207.37C450.71 207.37 454.36 203.39 454.36 198.48C454.36 193.57 450.71 189.59 446.21 189.59V193.58C448.7 193.58 450.71 195.77 450.71 198.49C450.71 201.21 448.7 203.4 446.21 203.4C443.72 203.4 441.71 201.21 441.71 198.49H438.06V198.48Z" fill="#AD97C2"/>
<path fill-rule="evenodd" clip-rule="evenodd" d="M445.26 189.02C441.02 189.2 437.62 192.92 437.45 197.54H441.11C441.27 195.12 443.04 193.19 445.27 193.01V189.02H445.26Z" fill="#9556D4"/>
<path d="M423.25 149.66H319.72V157.14H423.25V149.66Z" fill="#C1B1D1"/>
<path d="M328.8 149.66H319.72V157.14H328.8V149.66Z" fill="#AD97C2"/>
<path d="M324.05 184.7H320.97V228.5H324.05V184.7Z" fill="#EA8577"/>
<path d="M327.13 193.09H324.05V228.5H327.13V193.09Z" fill="#AD97C2"/>
<path d="M330.22 219.9H327.14V228.5H330.22V219.9Z" fill="#F8A68B"/>
<path fill-rule="evenodd" clip-rule="evenodd" d="M322.19 232.12H328.55C329.22 232.12 329.77 232.72 329.77 233.46C329.77 234.2 329.22 234.8 328.55 234.8H322.19C321.52 234.8 320.97 234.2 320.97 233.46C320.97 232.72 321.52 232.12 322.19 232.12Z" fill="#9556D4"/>
<path d="M339.59 175.49H336.51V228.51H339.59V175.49Z" fill="#EA8577"/>
<path d="M342.67 186.52H339.59V228.51H342.67V186.52Z" fill="#AD97C2"/>
<path d="M345.75 215.7H342.67V228.51H345.75V215.7Z" fill="#F8A68B"/>
<path fill-rule="evenodd" clip-rule="evenodd" d="M337.74 232.12H344.1C344.77 232.12 345.32 232.72 345.32 233.46C345.32 234.2 344.77 234.8 344.1 234.8H337.74C337.07 234.8 336.52 234.2 336.52 233.46C336.52 232.72 337.07 232.12 337.74 232.12Z" fill="#9556D4"/>
<path d="M355.13 179.16H352.05V228.5H355.13V179.16Z" fill="#EA8577"/>
<path d="M358.21 196.16H355.13V228.5H358.21V196.16Z" fill="#AD97C2"/>
<path d="M361.3 224.2H358.22V228.5H361.3V224.2Z" fill="#F8A68B"/>
<path fill-rule="evenodd" clip-rule="evenodd" d="M353.28 232.12H359.64C360.31 232.12 360.86 232.72 360.86 233.46C360.86 234.2 360.31 234.8 359.64 234.8H353.28C352.61 234.8 352.06 234.2 352.06 233.46C352.06 232.72 352.61 232.12 353.28 232.12Z" fill="#9556D4"/>
<path d="M370.68 170.7H367.6V228.5H370.68V170.7Z" fill="#EA8577"/>
<path d="M373.75 193.09H370.67V228.5H373.75V193.09Z" fill="#AD97C2"/>
<path d="M376.83 220.1H373.75V228.5H376.83V220.1Z" fill="#F8A68B"/>
<path fill-rule="evenodd" clip-rule="evenodd" d="M368.82 232.12H375.18C375.85 232.12 376.4 232.72 376.4 233.46C376.4 234.2 375.85 234.8 375.18 234.8H368.82C368.15 234.8 367.6 234.2 367.6 233.46C367.6 232.72 368.15 232.12 368.82 232.12Z" fill="#9556D4"/>
<path fill-rule="evenodd" clip-rule="evenodd" d="M453.74 221.11C453.74 226.02 450.09 230 445.59 230C441.09 230 437.44 226.02 437.44 221.11C437.44 216.2 441.09 212.22 445.59 212.22V216.21C443.1 216.21 441.09 218.4 441.09 221.12C441.09 223.84 443.1 226.03 445.59 226.03C448.08 226.03 450.09 223.84 450.09 221.12H453.74V221.11Z" fill="#AD97C2"/>
<path fill-rule="evenodd" clip-rule="evenodd" d="M446.55 211.64C450.79 211.82 454.19 215.54 454.36 220.16H450.7C450.54 217.74 448.77 215.81 446.54 215.63V211.64H446.55Z" fill="#9556D4"/>
<path fill-rule="evenodd" clip-rule="evenodd" d="M436.77 153.86H447.5C448.21 153.86 448.8 154.5 448.8 155.28C448.8 156.06 448.22 156.7 447.5 156.7H436.77C436.06 156.7 435.47 156.06 435.47 155.28C435.47 154.5 436.05 153.86 436.77 153.86Z" fill="#AD97C2"/>
<path fill-rule="evenodd" clip-rule="evenodd" d="M436.77 160.05H441.25C441.96 160.05 442.54 160.69 442.54 161.47C442.54 162.25 441.96 162.89 441.25 162.89H436.77C436.06 162.89 435.47 162.25 435.47 161.47C435.47 160.69 436.05 160.05 436.77 160.05Z" fill="#AD97C2"/>
<path fill-rule="evenodd" clip-rule="evenodd" d="M445.13 160.05H452.85C453.56 160.05 454.14 160.69 454.14 161.47C454.14 162.25 453.56 162.89 452.85 162.89H445.13C444.42 162.89 443.83 162.25 443.83 161.47C443.83 160.69 444.41 160.05 445.13 160.05Z" fill="#AD97C2"/>
<path fill-rule="evenodd" clip-rule="evenodd" d="M436.77 166.28H441.25C441.96 166.28 442.54 166.92 442.54 167.7C442.54 168.48 441.96 169.12 441.25 169.12H436.77C436.06 169.12 435.47 168.48 435.47 167.7C435.47 166.92 436.05 166.28 436.77 166.28Z" fill="#AD97C2"/>
<path fill-rule="evenodd" clip-rule="evenodd" d="M445.13 166.28H452.85C453.56 166.28 454.14 166.92 454.14 167.7C454.14 168.48 453.56 169.12 452.85 169.12H445.13C444.42 169.12 443.83 168.48 443.83 167.7C443.83 166.92 444.41 166.28 445.13 166.28Z" fill="#AD97C2"/>
<path d="M395.44 201.95H386.01V204.3H395.44V201.95Z" fill="#AD97C2"/>
<path d="M403.31 205.38H386V207.73H403.31V205.38Z" fill="#AD97C2"/>
<path d="M411.41 208.81H386V211.16H411.41V208.81Z" fill="#AD97C2"/>
<path d="M418.04 212.23H386.01V214.58H418.04V212.23Z" fill="#AD97C2"/>
<path d="M407.01 215.66H386.01V218.01H407.01V215.66Z" fill="#EA8577"/>
<path d="M414.26 219.09H386V221.44H414.26V219.09Z" fill="#EA8577"/>
<path d="M417.06 222.52H386V224.87H417.06V222.52Z" fill="#EA8577"/>
<path d="M420.13 225.94H386V228.29H420.13V225.94Z" fill="#EA8577"/>
<path opacity="0.5" d="M423.25 165.92H385.61V193.95H423.25V165.92Z" fill="url(#paint6_radial_4708_54471)"/>
<path d="M388.36 168.58V191.14H420.95V191.4H388.11V168.58H388.36Z" fill="white"/>
<path fill-rule="evenodd" clip-rule="evenodd" d="M388.36 181.48C388.36 181.48 391.57 175.66 394.12 177.73C396.66 179.8 396.69 183.55 399.12 184.01C401.55 184.48 402.79 172.32 406.53 173.08C410.27 173.84 409.61 180.6 413.84 183.26C418.07 185.92 420.14 177.73 420.14 177.73V191.14H388.36V181.49V181.48Z" fill="#9556D4"/>
<path fill-rule="evenodd" clip-rule="evenodd" d="M436.77 172.26H452.85C453.56 172.26 454.14 172.9 454.14 173.68C454.14 174.46 453.56 175.1 452.85 175.1H436.77C436.06 175.1 435.47 174.46 435.47 173.68C435.47 172.9 436.05 172.26 436.77 172.26Z" fill="#AD97C2"/>
<path fill-rule="evenodd" clip-rule="evenodd" d="M436.77 178.14H446.16C446.87 178.14 447.46 178.78 447.46 179.56C447.46 180.34 446.88 180.98 446.16 180.98H436.77C436.06 180.98 435.47 180.34 435.47 179.56C435.47 178.78 436.05 178.14 436.77 178.14Z" fill="#AD97C2"/>
<path d="M447.29 212.99C446.75 211.13 447.83 209.62 449.69 209.62C451.55 209.62 453.49 211.13 454.02 212.99C454.56 214.85 453.48 216.36 451.62 216.36C449.76 216.36 447.82 214.86 447.29 212.99Z" fill="white"/>
<g style="mix-blend-mode:multiply" opacity="0.25">
<path d="M476.29 477.8C464.27 477.22 423.37 478.2 410.93 478.58C398.49 478.96 385.09 478.49 377.36 478.31C365.73 478.04 329.65 477.61 327.67 480.38C325.25 483.75 346.99 481.95 366.66 483.36C386.33 484.77 430.58 483.18 440.56 483.36C450.54 483.54 459.69 483.01 472.56 482.3C485.42 481.6 483.27 478.12 476.3 477.79L476.29 477.8Z" fill="#575757"/>
</g>
<path d="M382.39 339.42C388.59 350.21 396.39 354.38 396.39 354.38H428.84C428.84 354.38 377.65 331.18 382.38 339.42H382.39Z" fill="#231F20"/>
<path d="M407.31 422.93C408.16 423.9 408.26 424.98 407.84 426.14C407.84 426.14 407.84 426.15 407.84 426.16C407.07 428.3 404.51 430.69 401.54 433.07C401.16 433.38 400.82 433.66 400.53 433.91C400.45 433.98 400.38 434.05 400.3 434.11C400.24 434.16 400.18 434.22 400.13 434.27C397.36 436.82 398.4 437.41 393.43 442.59C387.76 448.49 383.85 448.6 382.74 448.06C381.8 447.6 383.71 444.47 385.83 440.95C385.93 440.78 386.03 440.61 386.14 440.44C386.42 439.97 386.7 439.5 386.98 439.03C389.46 434.79 388.82 432.81 388.24 426.5C387.76 421.38 380.27 397.88 380.27 397.88L391.14 396.01C391.14 396.01 394.41 414.72 398.02 417.6C399.95 419.14 402.11 419.16 403.96 420.29C404.09 420.37 404.22 420.45 404.35 420.53C405.4 421.23 406.48 421.95 407.33 422.92L407.31 422.93Z" fill="#FFB27D"/>
<path d="M407.31 422.93C408.16 423.9 408.26 424.98 407.84 426.14C407.84 426.14 407.84 426.15 407.84 426.16C406.89 428.3 404.4 430.67 401.53 433.05C401.16 433.36 400.82 433.65 400.53 433.91C400.45 433.98 400.38 434.05 400.3 434.11C400.24 434.16 400.18 434.22 400.13 434.27C397.36 436.82 398.4 437.41 393.43 442.59C387.76 448.49 383.85 448.6 382.74 448.06C381.8 447.6 383.71 444.47 385.83 440.95C386.93 440.55 392.07 438.46 395.94 433.5C399.36 429.14 401.64 423.54 403.96 420.29C404.09 420.37 404.22 420.45 404.35 420.53C405.4 421.23 406.48 421.95 407.33 422.92L407.31 422.93Z" fill="#2D2D2D"/>
<path d="M319.63 416.14C318.96 419.5 314.17 418.94 308.83 417.63C303.48 416.32 304.76 417.88 297.15 417.03C289.54 416.19 287.24 413.35 287.01 412.22C286.8 411.22 290.56 410.86 294.59 410.4C295.1 410.34 295.61 410.28 296.12 410.22C300.67 409.65 304.01 406.71 308.14 404.3C312.06 402.02 317.9 392.7 317.9 392.7L328.33 393.53C328.33 393.53 322.86 401.85 320.74 405.46C319.49 407.59 319.56 410.4 319.72 412.57C319.8 413.75 319.88 414.96 319.64 416.14H319.63Z" fill="#FFB27D"/>
<path d="M308.83 417.63C303.48 416.32 304.76 417.88 297.15 417.03C289.54 416.19 287.24 413.35 287.01 412.22C286.8 411.22 290.56 410.86 294.59 410.4L294.63 410.48C294.63 410.48 299.19 413.71 305.52 413.87C310.68 414 316.15 412.52 319.71 412.57C319.79 413.75 319.87 414.96 319.63 416.14C318.96 419.5 314.17 418.94 308.83 417.63Z" fill="#2D2D2D"/>
<path d="M359.62 349.43L369.37 375.67L382.1 409.94C382.1 409.94 385.56 410.27 388.86 409.32C391.91 408.44 395.4 406.14 395.4 406.14C395.4 406.14 391.86 369.35 385.27 348.23C383.58 342.81 381.69 338.42 379.6 335.96C369.38 323.88 359.61 349.44 359.61 349.44L359.62 349.43Z" fill="#231F20"/>
<path d="M369.53 307.75C375.92 305.69 394.14 308.34 412.45 311.92L416.28 305.6L455.82 302.51C455.82 302.51 468.87 331.45 461.72 349.88C460.67 352.59 458.07 353.73 454.52 353.79C454.52 353.79 430.93 354.37 423.28 354.37C403.62 354.37 381.66 340.85 378.82 340.28C374.17 339.35 372.31 348.65 367.66 358.41C363.01 368.17 323.97 401.64 323.97 401.64C323.97 401.64 317.97 401.7 315.49 400.77C312.82 399.77 311.85 398.47 311.85 398.47C311.85 398.47 355.11 312.39 369.52 307.75H369.53Z" fill="#2D2D2D"/>
<path d="M416.52 251.15C430.6 258.9 459.16 274.98 459.31 274.87C459.31 274.87 469.81 278.83 475.77 274.87C485.7 268.28 491.02 250.53 472.87 235.26C463.82 227.64 457.38 225.79 456.41 213.63C455.88 207.03 446.86 185.26 431.88 187.27C430.63 187.44 429.37 187.56 428.1 187.52C426.35 187.46 423.46 187.72 420.5 189.48C412.02 194.53 395.42 248.14 416.53 251.14L416.52 251.15Z" fill="#2D2D2D"/>
<path d="M428.32 244.55C428.26 244.59 435.25 246.98 439.92 244.91C444.32 242.97 447.65 235.73 447.58 235.73C445.58 235.64 443.38 233.89 441.69 222.41L440.84 222.72L426.52 227.87C426.52 227.87 427.56 232.47 428.23 236.84C428.8 240.51 429.1 244.03 428.32 244.55Z" fill="#FFB27D"/>
<path d="M426.52 227.86C426.52 227.86 427.56 232.46 428.23 236.83C436.46 235.35 439.68 227.15 440.84 222.71L426.52 227.86Z" fill="#ED975D"/>
<path d="M424.39 232.43C424.39 232.43 443.98 229.8 442.16 217.62C440.33 205.44 441.63 196.9 429.05 198.07C416.46 199.23 414.73 204.24 414.36 208.46C413.98 212.67 419.26 232.8 424.4 232.43H424.39Z" fill="#FFB27D"/>
<path d="M415.07 201.78C415.07 201.78 427.61 212.59 436.14 213.46C444.67 214.33 447.9 211.59 447.9 211.59C447.9 211.59 442.87 207.41 439.84 200.68C438.95 198.69 437.06 197.33 434.89 197.14C428.8 196.61 417.25 196.37 415.05 201.78H415.07Z" fill="#2D2D2D"/>
<path d="M422.91 200.81C422.91 200.81 418.71 204.87 417.39 207.88C416.11 210.78 415.73 217.73 416.75 220.49C416.75 220.49 410.21 207.78 413.91 201.6C417.83 195.05 422.91 200.81 422.91 200.81Z" fill="#2D2D2D"/>
<path d="M411.82 273.41C412.41 313.07 411.98 304.78 416.32 308.55C417.37 309.46 420.3 310 424.17 310.25C436.33 311.06 457.71 309.05 458.52 306.81C461.33 299.03 459.34 296.62 461.69 284.71C461.93 283.44 462.24 282.07 462.59 280.58C464.54 272.4 466.44 269.62 459.52 256.48C453.24 244.58 446.72 234.92 446.13 235.27C429.57 245.1 428.23 236.84 428.23 236.84C428.23 236.84 411.53 254.07 411.82 273.41Z" fill="#E6E7E8"/>
<path d="M369.37 375.68L382.1 409.95C382.1 409.95 385.56 410.28 388.86 409.33C391.91 408.45 395.4 406.15 395.4 406.15C395.4 406.15 391.86 369.36 385.27 348.24L369.36 375.69L369.37 375.68Z" fill="#2D2D2D"/>
<path d="M428.23 236.83C428.23 236.83 411.19 239.72 409.19 247.06C407.19 254.4 395.41 297.54 395.41 297.54C395.41 297.54 404.07 299.1 408.08 295.09C412.08 291.09 422.01 257.95 422.01 257.95L428.24 236.83H428.23Z" fill="#E6E7E8"/>
<path d="M424.17 310.25C436.33 311.06 457.71 309.05 458.52 306.81C461.33 299.03 459.34 296.62 461.69 284.71L455.82 268.19C455.82 268.19 456.79 286.58 451.37 291.42C445.95 296.26 429.16 300.76 426.52 304.8C425.25 306.74 424.41 308.69 424.17 310.25Z" fill="#D8D9DB"/>
<path d="M438.11 302.51C438.11 302.51 426.11 299.84 424.18 300.9C422.24 301.96 417.51 305.84 416.92 307.19C416.33 308.54 421.23 306.17 422.82 305.74C423.85 305.46 426.57 306.41 427.92 306.86C433.58 308.75 437.05 307.78 437.05 307.78L438.11 302.51Z" fill="#FFB27D"/>
<path d="M446.14 235.26C446.14 235.26 462.25 236.25 467.83 244.03C475.68 254.98 491.25 301.64 482.33 307.87C472.28 314.88 436.58 309.7 436.58 309.7C436.58 309.7 435.39 304.15 437.05 301.46C438.7 298.77 465.56 294.44 466.8 293.2C468.04 291.96 451.31 269.03 451.31 265.31C451.31 261.59 446.15 235.26 446.15 235.26H446.14Z" fill="#E6E7E8"/>
<path d="M423.59 304.24C423.59 304.24 421.08 307.48 420.25 307.87C419.43 308.26 418.89 308.16 418.89 308.16L420.58 305.11L423.58 304.24H423.59Z" fill="#FFB27D"/>
<path d="M424.17 300.9L416.86 304.45C416.86 304.45 417.17 304.96 418.07 304.92C418.97 304.88 421.24 304.05 421.24 304.05L424.17 300.9Z" fill="#FFB27D"/>
<path d="M420.26 312.84H362.44L345.05 269.59H402.77L420.26 312.84Z" fill="#EE9D92"/>
<path d="M361.76 311.16H438.11V312.84H362.44L361.76 311.16Z" fill="#EA8577"/>
<path d="M377.03 291.22C376.59 289.7 377.47 288.47 378.99 288.47C380.51 288.47 382.1 289.7 382.53 291.22C382.97 292.74 382.09 293.97 380.57 293.97C379.05 293.97 377.46 292.74 377.03 291.22Z" fill="white"/>
<path d="M385.58 478.15C392.73 470.84 405.34 465.81 419.89 465.22V441.06H397.4C396.84 441.06 396.35 440.57 396.03 439.82C395.81 439.29 395.68 438.64 395.68 437.93V436.84C395.68 435.12 396.45 433.72 397.4 433.72H419.89V376.17C419.89 374.58 421.19 373.28 422.78 373.28C424.37 373.28 425.67 374.58 425.67 376.17V433.72H448.16C449.11 433.72 449.88 435.12 449.88 436.84V437.93C449.88 438.66 449.74 439.33 449.51 439.87C449.19 440.59 448.71 441.05 448.16 441.05H425.67V465.21C440.23 465.8 452.83 470.83 459.98 478.14C460.5 478.67 460.99 479.21 461.45 479.77H384.11C384.57 479.22 385.06 478.68 385.58 478.14V478.15Z" fill="#F8A68B"/>
<path d="M419.9 465.33C430.06 466.27 438.79 471.17 443.84 478.15C444.23 478.68 444.59 479.22 444.93 479.78H452.09C451.75 479.23 451.39 478.69 451 478.15C445.36 470.36 435.15 465.16 423.48 465.16C422.27 465.16 421.08 465.22 419.9 465.33Z" fill="#EA8577"/>
<path d="M461.08 354.38H384.49C382.574 354.38 381.02 355.934 381.02 357.85V372.37C381.02 374.286 382.574 375.84 384.49 375.84H461.08C462.996 375.84 464.55 374.286 464.55 372.37V357.85C464.55 355.934 462.996 354.38 461.08 354.38Z" fill="#EA8577"/>
<g style="mix-blend-mode:multiply" opacity="0.25">
<path d="M139.78 433.72C128.96 432.42 93.8999 434.68 82.6199 435.15C71.3399 435.62 59.1799 435.04 52.1799 434.82C41.6299 434.49 16.1399 433.25 14.3399 436.65C12.1499 440.79 22.6699 444.09 42.4799 441.03C60.1199 438.3 100.45 440.81 109.5 441.03C118.55 441.25 127.03 441.56 138.52 439.73C145.07 438.69 142.49 434.04 139.8 433.72H139.78Z" fill="#575757"/>
</g>
<path d="M17.2 265.87L15.65 270.95L16.66 279.61C17.04 280.59 18.13 286.92 16.17 285.14C14.79 283.89 12.62 280.16 12.45 280.24C10.29 281.27 6.47996 292.7 6.28996 292.81C3.54996 294.27 5.53996 286.87 5.82996 285.6C5.89996 285.27 3.31996 290.39 3.11996 290.14C2.86996 289.83 2.17996 289.05 2.52996 287.66C2.94996 285.95 4.14996 283.14 3.91996 282.78C3.67996 282.41 1.21996 287.4 1.01996 287.03C0.86996 286.75 0.53996 286.19 0.83996 285.12C1.32996 283.36 2.59996 280.83 2.44996 280.39C2.29996 279.93 0.73996 283.61 0.63996 283.17C0.55996 282.83 -0.0400403 282.71 0.0299597 282.38C1.72996 273.47 6.17996 274.74 7.85996 264.49C8.78996 258.79 16.45 263.84 17.23 265.86" fill="#EA997D"/>
<path fill-rule="evenodd" clip-rule="evenodd" d="M86.6199 169.42C111.99 196.98 129.24 209.81 151.8 205.56C164.96 199.31 195.37 174.7 191.81 167.58C189.19 162.33 192.04 157.66 184.66 161.59C174.74 166.61 153.26 180.25 150.79 180.71C138.87 182.91 106.81 147.27 101.1 147.97C99.0499 147.76 78.6599 164.92 86.6299 169.42" fill="#D1D1DB"/>
<path d="M187.97 158.7C188.15 156.85 188.96 149.55 190.09 148.21C190.67 147.53 190.85 147.79 191.18 148.14C191.47 148.45 191.78 149.35 191.77 149.99C191.77 151.33 192.88 153.49 192.77 154.22C200.39 153.52 206.43 144.96 208.84 148.2C208.87 149.01 207.4 153.52 207.32 154.78C207.08 158.79 206.54 160.74 193.32 168.28C192.69 168.64 191.22 169.92 190.53 170.3C189.38 169.57 186.7 166.63 185.9 162.68L187.96 158.69L187.97 158.7Z" fill="#EA997D"/>
<path fill-rule="evenodd" clip-rule="evenodd" d="M112.12 428.69C106.25 430.7 100.48 430.15 97.07 429.49C96.98 428.37 96.88 427.15 96.77 425.88L110.19 426.37C110.64 427.07 111.32 428.08 112.12 428.69Z" fill="#EA997D"/>
<path fill-rule="evenodd" clip-rule="evenodd" d="M113.75 439.33C101.76 439.02 98.9 438.18 97.62 436.24C97.6 436.2 97.4 433.43 97.08 429.49C100.49 430.15 106.26 430.7 112.13 428.69C112.27 428.81 112.42 428.91 112.57 428.99C115.46 430.57 121.88 431.42 123.59 433.05C124.82 434.23 130.62 439.78 113.75 439.33Z" fill="black"/>
<path d="M43.4899 429.87C36.6299 431.67 32.5099 430.9 30.2799 429.96C30.3999 428.79 30.5299 427.61 30.6499 426.43H42.9699C42.7699 427.11 42.6599 427.48 42.6599 427.48C42.7299 428.02 43.0299 428.88 43.4899 429.87Z" fill="#EA997D"/>
<path fill-rule="evenodd" clip-rule="evenodd" d="M39.32 441.48C26.76 441.37 29.7 436.5 29.66 435.73C29.87 433.83 30.07 431.9 30.28 429.96C32.51 430.9 36.63 431.67 43.49 429.87C44.34 431.73 45.74 434.08 47.25 435.76C47.96 438.29 51.88 441.59 39.32 441.48Z" fill="black"/>
<path fill-rule="evenodd" clip-rule="evenodd" d="M111.99 426.9C115.82 368.95 127.85 284.89 120.79 253.91C118.11 243.38 103.29 243.17 103.89 235.53C107.11 194.77 96.4699 234.37 79.2399 244.11C67.8999 250.51 47.0999 250.81 47.0999 250.81C44.4099 286.43 35.8399 363.13 29.0699 426.44H44.3999C48.3499 413.43 80.9299 306.46 83.6399 294.37C84.9999 302.58 92.5099 392.79 95.3999 426.44L112 426.91L111.99 426.9Z" fill="#171717"/>
<path fill-rule="evenodd" clip-rule="evenodd" d="M24.9799 180.3C14.4199 206.08 10.0199 234.18 6.7199 261.63C6.3899 264.4 7.4999 266.99 10.9199 268.82C13.0999 269.99 14.7099 269.4 18.7299 265.86C24.8299 258.51 29.1499 232 35.7999 221.15C48.9099 199.73 61.5299 178.95 54.5699 165.23C54.2399 163.3 27.0799 171.87 24.9899 180.3" fill="#D1D1DB"/>
<path fill-rule="evenodd" clip-rule="evenodd" d="M42.01 206.75C44.54 221.59 46.6 246.75 45.21 272.03C75.64 277.26 104.69 275.6 122.86 269.82C122.01 249.74 127.94 153.4 98.19 147.02C78.06 141.38 51.07 143.16 39.91 154.16L39.81 154.25C31.29 162.23 20.76 188.55 15.8 207.62C5.39996 247.61 33.3 225.53 42.01 206.75Z" fill="#E8E8EF"/>
<path fill-rule="evenodd" clip-rule="evenodd" d="M90.37 145.08C94.02 161.66 95.29 217.64 94.91 236.14C94.2 234.75 63.22 157.67 60.6 144.87C69.1 142.45 81.01 142.78 90.37 145.08Z" fill="white"/>
<path d="M96.14 204.65L94.91 236.14L81.16 207.19L80.33 166.16L77.11 161.64L80.57 157.83L84.85 160.13L83.42 165.33C87.65 176.59 93.33 195.88 96.14 204.65Z" fill="#532680"/>
<path fill-rule="evenodd" clip-rule="evenodd" d="M42.01 206.75C44.38 221.84 45.77 253.1 45.21 272.03C53.19 252.25 48.95 200.48 47.41 192.51C45.97 197.36 44.14 202.29 42.02 206.75" fill="#D1D1DB"/>
<path d="M84.1099 139.12L84.2199 145.31L85.1199 146.08C88.6499 149.86 84.8299 157.62 80.8099 157.38C70.6599 157.88 62.8599 149.55 65.9099 145.03L67.2399 143.55L67.5299 134.79C67.0099 134.76 63.1899 132.59 62.0599 132.24C60.9299 131.89 59.2599 129.7 59.1499 127.39C59.0399 125.08 62.6099 125.83 62.6099 125.83C58.2899 119.91 53.3899 115.08 59.7399 109.76C66.0899 104.43 80.6699 101.32 80.6699 101.32L89.4399 98.28C88.3199 101.31 89.8199 111.41 92.0699 117.72C95.2699 126.69 93.4999 134.62 84.1099 139.12Z" fill="#EA997D"/>
<path d="M71.6699 136C71.6699 136 76.6299 144.51 80.7099 145.28C84.7899 146.05 82.6999 145.48 84.2199 145.3L84.1099 139.11C81.2999 139.56 78.5499 139.34 71.6699 136Z" fill="#D87E66"/>
<path d="M87.8999 111.37C80.5999 115.11 72.1999 110.67 67.9599 115.68C65.8599 118.16 66.0699 121.73 68.4199 127.25C69.1099 128.88 70.0399 130.07 67.2999 128.8C66.0399 128.22 63.9599 127.4 63.2499 127.97C61.6699 129.24 62.4699 131.93 63.7299 132.79C64.2899 133.18 65.3599 133.75 65.3599 133.75C55.5499 131.89 51.4599 123.04 51.5999 115.91C51.6499 113.49 51.9199 111.34 52.3699 109.43C52.1699 108.77 52.0599 108.07 52.0599 107.35C52.0599 104.26 54.0299 101.64 56.7299 100.82C57.2299 97.59 59.8999 95.12 63.1299 95.12C64.0999 95.12 65.0199 95.34 65.8499 95.74L66.1699 95.65C67.3499 93.63 69.5599 92.26 72.0899 92.26C73.8599 92.26 75.4799 92.93 76.6899 94.03C78.4799 91.6 81.1799 90.05 84.2099 90.05C89.5899 90.05 93.9599 94.96 93.9599 101.01C93.9599 104.8 92.2499 108.14 89.6499 110.11C89.1299 110.57 88.5499 110.99 87.9099 111.36" fill="#171717"/>
</g>
<defs>
<radialGradient id="paint0_radial_4708_54471" cx="0" cy="0" r="1" gradientUnits="userSpaceOnUse" gradientTransform="translate(234.793 207.852) scale(59.769 71.4618)">
<stop stop-color="#9556D4"/>
<stop offset="0.2" stop-color="#7843AE"/>
<stop offset="0.42" stop-color="#613390"/>
<stop offset="0.62" stop-color="#50287A"/>
<stop offset="0.82" stop-color="#46226D"/>
<stop offset="1" stop-color="#432069"/>
</radialGradient>
<radialGradient id="paint1_radial_4708_54471" cx="0" cy="0" r="1" gradientUnits="userSpaceOnUse" gradientTransform="translate(265.877 67.1942) scale(103.992 94.3102)">
<stop stop-color="#9556D4"/>
<stop offset="0.2" stop-color="#7843AE"/>
<stop offset="0.42" stop-color="#613390"/>
<stop offset="0.62" stop-color="#50287A"/>
<stop offset="0.82" stop-color="#46226D"/>
<stop offset="1" stop-color="#432069"/>
</radialGradient>
<radialGradient id="paint2_radial_4708_54471" cx="0" cy="0" r="1" gradientUnits="userSpaceOnUse" gradientTransform="translate(228.4 125.238) scale(89.8264 81.4604)">
<stop stop-color="#9556D4"/>
<stop offset="0.2" stop-color="#7843AE"/>
<stop offset="0.42" stop-color="#613390"/>
<stop offset="0.62" stop-color="#50287A"/>
<stop offset="0.82" stop-color="#46226D"/>
<stop offset="1" stop-color="#432069"/>
</radialGradient>
<radialGradient id="paint3_radial_4708_54471" cx="0" cy="0" r="1" gradientUnits="userSpaceOnUse" gradientTransform="translate(362.227 66.8493) scale(55.7044 50.5156)">
<stop stop-color="#9556D4"/>
<stop offset="0.2" stop-color="#7843AE"/>
<stop offset="0.42" stop-color="#613390"/>
<stop offset="0.62" stop-color="#50287A"/>
<stop offset="0.82" stop-color="#46226D"/>
<stop offset="1" stop-color="#432069"/>
</radialGradient>
<radialGradient id="paint4_radial_4708_54471" cx="0" cy="0" r="1" gradientUnits="userSpaceOnUse" gradientTransform="translate(406.944 192.299) scale(60.2728 65.6026)">
<stop stop-color="#9556D4"/>
<stop offset="0.2" stop-color="#7843AE"/>
<stop offset="0.42" stop-color="#613390"/>
<stop offset="0.62" stop-color="#50287A"/>
<stop offset="0.82" stop-color="#46226D"/>
<stop offset="1" stop-color="#432069"/>
</radialGradient>
<radialGradient id="paint5_radial_4708_54471" cx="0" cy="0" r="1" gradientUnits="userSpaceOnUse" gradientTransform="translate(468.589 190.452) scale(32.9564 35.8704)">
<stop stop-color="#9556D4"/>
<stop offset="0.2" stop-color="#7843AE"/>
<stop offset="0.42" stop-color="#613390"/>
<stop offset="0.62" stop-color="#50287A"/>
<stop offset="0.82" stop-color="#46226D"/>
<stop offset="1" stop-color="#432069"/>
</radialGradient>
<radialGradient id="paint6_radial_4708_54471" cx="0" cy="0" r="1" gradientUnits="userSpaceOnUse" gradientTransform="translate(383.273 182.126) scale(16.074 17.4934)">
<stop stop-color="#9556D4"/>
<stop offset="0.2" stop-color="#7843AE"/>
<stop offset="0.42" stop-color="#613390"/>
<stop offset="0.62" stop-color="#50287A"/>
<stop offset="0.82" stop-color="#46226D"/>
<stop offset="1" stop-color="#432069"/>
</radialGradient>
<clipPath id="clip0_4708_54471">
<rect width="485.01" height="483.96" fill="white"/>
</clipPath>
</defs>
</svg>
