<svg width="40" height="40" viewBox="0 0 40 40" fill="none" xmlns="http://www.w3.org/2000/svg">
<circle cx="20" cy="20" r="20" fill="#F8F1FF"/>
<path d="M24.192 9.67234L23.6001 9.95224V8.00024H25.2V9.85633L24.9121 9.69628C24.6881 9.57625 24.4241 9.56837 24.192 9.67234Z" fill="#532680"/>
<path d="M12.4 8.00024V32C11.0721 32 10 30.9279 10 29.6001V10.4002C10 9.07235 11.0721 8.00024 12.4 8.00024Z" fill="#532680"/>
<path d="M17.5998 15.6H25.5999V18H17.5998V15.6Z" fill="#532680"/>
<path d="M27.6 8.0002H26.7999V11.2002C26.7999 11.4801 26.6479 11.7441 26.4079 11.8883C26.28 11.9603 26.1439 12.0003 25.9999 12.0003C25.872 12.0003 25.7359 11.9683 25.6159 11.9044L24.4959 11.2963L23.1359 11.9283C22.8878 12.0403 22.5998 12.0244 22.3678 11.8724C22.1358 11.7282 21.9998 11.4724 21.9998 11.2004L22 8.00017H13.9999V32H27.6001C28.4801 32 29.2 31.2799 29.2 30.4V9.59993C29.2 8.72004 28.48 8 27.6001 8L27.6 8.0002ZM26.4 29.2002H16.8001C16.3601 29.2002 16 28.8402 16 28.4001C16 27.9602 16.36 27.6001 16.8001 27.6001H26.4C26.84 27.6001 27.2 27.96 27.2 28.4001C27.2 28.8401 26.8401 29.2002 26.4 29.2002ZM26.4 26.0001H16.8001C16.3601 26.0001 16 25.6402 16 25.2001C16 24.7601 16.36 24.4 16.8001 24.4H26.4C26.84 24.4 27.2 24.76 27.2 25.2001C27.2 25.6401 26.8401 26.0001 26.4 26.0001ZM26.4 22.8001H16.8001C16.3601 22.8001 16 22.4402 16 22.0001C16 21.5601 16.36 21.2 16.8001 21.2H26.4C26.84 21.2 27.2 21.5599 27.2 22.0001C27.2 22.44 26.8401 22.8001 26.4 22.8001ZM27.2 18.8002C27.2 19.2402 26.8401 19.6002 26.4 19.6002H16.8001C16.3601 19.6002 16 19.2403 16 18.8002V14.8003C16 14.3603 16.36 14.0002 16.8001 14.0002H26.4C26.84 14.0002 27.2 14.3602 27.2 14.8003V18.8002Z" fill="#532680"/>
</svg>
