<svg width="64" height="64" viewBox="0 0 64 64" fill="none" xmlns="http://www.w3.org/2000/svg">
<g clip-path="url(#clip0_3199_40375)">
<path opacity="0.4" fill-rule="evenodd" clip-rule="evenodd" d="M61.3334 40.584C61.8638 40.584 62.3725 40.7947 62.7476 41.1698C63.1226 41.5448 63.3334 42.0536 63.3334 42.584C63.3351 45.2985 62.8017 47.9867 61.7638 50.4949C60.7258 53.003 59.2036 55.282 57.2841 57.2014C55.3647 59.1209 53.0857 60.6431 50.5776 61.6811C48.0694 62.719 45.3812 63.2524 42.6667 63.2507C42.3127 63.2506 41.9651 63.1567 41.6594 62.9784C41.3536 62.8001 41.1006 62.5439 40.9263 62.2358C40.7519 61.9278 40.6624 61.579 40.667 61.2251C40.6715 60.8712 40.7699 60.5248 40.952 60.2213L43.752 55.5547C43.8858 55.3267 44.0635 55.1275 44.2747 54.9687C44.4859 54.8098 44.7265 54.6944 44.9827 54.6291C45.2388 54.5637 45.5053 54.5498 45.7668 54.5882C46.0283 54.6265 46.2796 54.7162 46.5063 54.8523C46.7329 54.9883 46.9303 55.1679 47.087 55.3807C47.2438 55.5935 47.3569 55.8353 47.4196 56.092C47.4824 56.3487 47.4937 56.6154 47.4528 56.8765C47.4119 57.1376 47.3196 57.3881 47.1814 57.6133L46.4587 58.8186C50.1229 57.9645 53.3899 55.8949 55.7277 52.947C58.0656 49.999 59.3364 46.3464 59.3334 42.584C59.3334 42.0536 59.5441 41.5448 59.9191 41.1698C60.2942 40.7947 60.8029 40.584 61.3334 40.584ZM17.5414 5.01332C13.8763 5.86769 10.6086 7.93806 8.27066 10.8871C5.93274 13.8361 4.66242 17.49 4.66669 21.2533C4.66669 21.7838 4.45598 22.2925 4.08091 22.6675C3.70583 23.0426 3.19713 23.2533 2.66669 23.2533C2.13626 23.2533 1.62755 23.0426 1.25248 22.6675C0.877407 22.2925 0.666693 21.7838 0.666693 21.2533C0.66459 18.5386 1.19769 15.8501 2.23551 13.3416C3.27333 10.8331 4.7955 8.55386 6.71497 6.63415C8.63443 4.71444 10.9135 3.19197 13.4219 2.15383C15.9302 1.11569 18.6187 0.582235 21.3334 0.583989C21.6873 0.584009 22.0349 0.677961 22.3407 0.856252C22.6464 1.03454 22.8994 1.29078 23.0738 1.59881C23.2481 1.90684 23.3376 2.25563 23.3331 2.60955C23.3286 2.96347 23.2302 3.30985 23.048 3.61332L20.248 8.27999C20.1142 8.50793 19.9366 8.7071 19.7254 8.86597C19.5141 9.02485 19.2735 9.14027 19.0174 9.20559C18.7613 9.2709 18.4948 9.2848 18.2333 9.24648C17.9717 9.20817 17.7204 9.1184 17.4938 8.98236C17.2672 8.84632 17.0698 8.66672 16.913 8.45393C16.7562 8.24114 16.6432 7.99938 16.5804 7.74264C16.5176 7.48589 16.5064 7.21925 16.5473 6.95813C16.5882 6.697 16.6804 6.44658 16.8187 6.22132L17.5414 5.01599V5.01332Z" fill="#F2815B"/>
<path opacity="0.4" d="M39.6 40.8801C39.6 49.9734 32.24 57.3334 23.1467 57.3334C14.0534 57.3334 6.69336 49.9734 6.69336 40.8801C6.69336 31.7868 14.0534 24.4268 23.1467 24.4268C23.5734 24.4268 23.9734 24.4534 24.4267 24.4801C32.5067 25.0934 38.96 31.5468 39.5734 39.6268C39.5734 40.0268 39.6 40.4268 39.6 40.8801Z" fill="#F2815B"/>
<path d="M57.3333 23.1201C57.3333 32.2134 49.9733 39.5734 40.88 39.5734H39.5733C39.2707 35.6569 37.5777 31.9777 34.8001 29.2C32.0224 26.4224 28.3432 24.7294 24.4267 24.4267V23.1201C24.4267 14.0267 31.7867 6.66675 40.88 6.66675C49.9733 6.66675 57.3333 14.0267 57.3333 23.1201ZM29.6533 40.0294C29.9733 39.3627 30.16 38.6427 30.16 37.8694C30.16 35.2027 27.8133 32.8561 25.1467 32.8561H24.4533V31.8427C24.4533 30.7494 23.5467 29.8427 22.4533 29.8427C21.36 29.8427 20.4533 30.7494 20.4533 31.8427V32.8561H17.6533C16.56 32.8561 15.6533 33.7627 15.6533 34.8561V46.8561C15.6533 47.9494 16.56 48.8561 17.6533 48.8561H20.4533V49.8694C20.4533 50.9627 21.36 51.8694 22.4533 51.8694C23.5467 51.8694 24.4533 50.9627 24.4533 49.8694V48.8561H26.2133C29.2 48.8561 31.6533 46.6161 31.6533 43.8428C31.6533 42.3228 30.8533 40.9361 29.6533 40.0294ZM19.6533 36.8561H25.1467C25.7067 36.8561 26.16 37.4694 26.16 37.8694C26.16 38.4294 25.7067 38.8828 25.1467 38.8828H19.6533V36.8561ZM26.2133 44.8827H19.6267V42.8827H26.1867C27.04 42.8827 27.6267 43.4161 27.6267 43.8961C27.6267 44.3761 27.0667 44.8827 26.2133 44.8827Z" fill="#F2815B"/>
</g>
<defs>
<clipPath id="clip0_3199_40375">
<rect width="64" height="64" fill="white"/>
</clipPath>
</defs>
</svg>
