<svg width="40" height="40" viewBox="0 0 40 40" fill="none" xmlns="http://www.w3.org/2000/svg">
<circle cx="20" cy="20" r="20" fill="#F8F1FF"/>
<path d="M26.4284 17.8587C25.4942 17.8587 24.6172 18.0913 23.8454 18.4973C23.7727 19.8107 23.0347 20.9535 21.9629 21.5945C23.5685 22.1116 24.9003 23.2446 25.6802 24.7142H31.5699L31.5697 24.714C31.8064 24.715 31.9991 24.5238 32 24.2872V23.43C32 20.351 29.5078 17.8586 26.4286 17.8586L26.4284 17.8587Z" fill="#532680"/>
<path d="M13.5714 17.8587C10.4922 17.8587 8 20.3511 8 23.43V24.2872C8.00096 24.5225 8.19152 24.7131 8.42684 24.714H14.3195C15.0992 23.2448 16.4308 22.1124 18.036 21.5952C16.9625 20.9543 16.223 19.8102 16.1509 18.4948C15.3799 18.0899 14.5038 17.8586 13.5711 17.8586L13.5714 17.8587Z" fill="#532680"/>
<path d="M19.9999 15.2869C18.3482 15.2869 16.9976 16.6342 16.9976 18.2861C16.9976 19.9378 18.3482 21.2852 19.9999 21.2852C21.6516 21.2852 22.9991 19.9379 22.9991 18.2861C22.9991 16.6343 21.6518 15.2869 19.9999 15.2869Z" fill="#532680"/>
<path d="M19.9999 22.1426C16.9207 22.1426 14.4285 24.6348 14.4285 27.714V28.5713C14.4281 28.6849 14.4729 28.7942 14.5531 28.8749C14.633 28.9557 14.7419 29.0012 14.8557 29.0016H25.1409H25.1407C25.2549 29.002 25.3647 28.9568 25.4455 28.8761C25.5262 28.7953 25.5713 28.6855 25.571 28.5713V27.714C25.571 24.635 23.079 22.1426 19.9996 22.1426L19.9999 22.1426Z" fill="#532680"/>
<path d="M26.4284 11C24.7767 11 23.4261 12.3473 23.4261 13.9992C23.4261 15.6509 24.7767 17.0015 26.4284 17.0015C28.0801 17.0015 29.4276 15.6509 29.4276 13.9992C29.4276 12.3475 28.0803 11 26.4284 11Z" fill="#532680"/>
<path d="M13.5714 11C11.9196 11 10.5691 12.3473 10.5691 13.9992C10.5691 15.6509 11.9196 17.0015 13.5714 17.0015C15.2231 17.0015 16.5706 15.6509 16.5706 13.9992C16.5706 12.3475 15.2232 11 13.5714 11Z" fill="#532680"/>
</svg>
