<svg width="64" height="64" viewBox="0 0 64 64" fill="none" xmlns="http://www.w3.org/2000/svg">
<path opacity="0.4" d="M20 11.9999H19.3333V5.33325C19.3333 4.23992 18.4267 3.33325 17.3333 3.33325C16.24 3.33325 15.3333 4.23992 15.3333 5.33325V11.9999H14.6667C10.4267 11.9999 8 14.4266 8 18.6666V34.6666C8 38.9066 10.4267 41.3332 14.6667 41.3332H15.3333V58.6666C15.3333 59.7599 16.24 60.6666 17.3333 60.6666C18.4267 60.6666 19.3333 59.7599 19.3333 58.6666V41.3332H20C24.24 41.3332 26.6667 38.9066 26.6667 34.6666V18.6666C26.6667 14.4266 24.24 11.9999 20 11.9999Z" fill="#F2815B"/>
<path d="M49.3333 22.6666H48.6666V5.33325C48.6666 4.23992 47.76 3.33325 46.6666 3.33325C45.5733 3.33325 44.6666 4.23992 44.6666 5.33325V22.6666H44C39.76 22.6666 37.3333 25.0933 37.3333 29.3333V45.3332C37.3333 49.5732 39.76 51.9999 44 51.9999H44.6666V58.6666C44.6666 59.7599 45.5733 60.6666 46.6666 60.6666C47.76 60.6666 48.6666 59.7599 48.6666 58.6666V51.9999H49.3333C53.5733 51.9999 56 49.5732 56 45.3332V29.3333C56 25.0933 53.5733 22.6666 49.3333 22.6666Z" fill="#F2815B"/>
</svg>
