<svg width="28" height="28" viewBox="0 0 28 28" fill="none" xmlns="http://www.w3.org/2000/svg">
<rect width="28" height="28" rx="14" fill="#F2815B"/>
<path d="M19.2831 11.1887C19.2885 11.3119 19.2885 11.4295 19.2885 11.5527C19.2939 15.2879 16.5496 19.5999 11.5311 19.5999C10.0509 19.5999 8.59774 19.1575 7.34985 18.3287C7.56594 18.3567 7.78202 18.3679 7.99811 18.3679C9.22439 18.3679 10.4183 17.9423 11.3852 17.1527C10.2184 17.1303 9.19197 16.3407 8.83543 15.1871C9.24599 15.2711 9.66736 15.2543 10.0671 15.1367C8.79762 14.8791 7.88466 13.7199 7.87926 12.3703C7.87926 12.3591 7.87926 12.3479 7.87926 12.3367C8.25741 12.5551 8.68418 12.6783 9.11634 12.6895C7.92248 11.8607 7.54973 10.2087 8.27361 8.91507C9.66196 10.6847 11.704 11.7543 13.8972 11.8719C13.6757 10.8919 13.9782 9.86147 14.6859 9.16707C15.7825 8.09747 17.5112 8.15347 18.5484 9.29027C19.1589 9.16707 19.7477 8.93187 20.2825 8.60147C20.0772 9.25667 19.6505 9.81107 19.0832 10.1639C19.6235 10.0967 20.1529 9.94547 20.6499 9.72147C20.2825 10.2927 19.8179 10.7855 19.2831 11.1887Z" fill="white"/>
</svg>
