<svg width="28" height="28" viewBox="0 0 28 28" fill="none" xmlns="http://www.w3.org/2000/svg">
<rect width="28" height="28" rx="14" fill="#F2815B"/>
<path d="M20.7116 10.6339C20.5502 10.0342 20.0774 9.56138 19.4777 9.39993C18.3822 9.1001 14 9.1001 14 9.1001C14 9.1001 9.61778 9.1001 8.52223 9.3884C7.9341 9.54985 7.44975 10.0342 7.2883 10.6339C7 11.7294 7 14.0012 7 14.0012C7 14.0012 7 16.2846 7.2883 17.3686C7.44975 17.9683 7.92257 18.4411 8.52223 18.6025C9.62931 18.9024 14 18.9024 14 18.9024C14 18.9024 18.3822 18.9024 19.4777 18.6141C20.0774 18.4526 20.5502 17.9798 20.7116 17.3801C20.9999 16.2846 20.9999 14.0128 20.9999 14.0128C20.9999 14.0128 21.0115 11.7294 20.7116 10.6339Z" fill="white"/>
<path d="M12.6042 16.1L16.2484 14.0012L12.6042 11.9023V16.1Z" fill="#F2815B"/>
</svg>
