<svg width="88" height="88" viewBox="0 0 88 88" fill="none" xmlns="http://www.w3.org/2000/svg">
<circle cx="44" cy="44" r="44" fill="#F8F1FF"/>
<g clip-path="url(#clip0_5106_52437)">
<path d="M65.7596 46.4578C65.5757 46.0876 65.5972 45.6754 65.5257 45.2837C64.6934 40.6816 61.6412 36.9992 57.6898 35.128L52.9605 39.8572C52.9946 39.9958 53.0093 40.1457 53.0037 40.3058C52.9878 40.7372 53.0922 40.8837 53.5442 40.8553C54.2209 40.8122 54.9022 40.8372 55.5812 40.8451C56.3351 40.8542 56.9006 41.3992 56.9074 42.1055C56.9142 42.8004 56.3386 43.3784 55.5994 43.3897C54.7648 43.4022 53.9302 43.392 53.0945 43.392C52.3167 43.3931 51.5378 43.3874 50.7588 43.3942C49.8175 43.4033 49.1112 44.088 49.1181 44.9748C49.1249 45.8616 49.8345 46.5225 50.7781 46.5452C51.682 46.5668 52.5892 46.4646 53.4885 46.6201C55.3848 46.9472 56.8279 48.6526 56.8461 50.5909C56.8666 52.5848 55.4972 54.3391 53.593 54.682C53.132 54.7649 52.9741 54.8909 53.0003 55.3769C53.0434 56.1615 52.4734 56.7327 51.7467 56.7361C51.0189 56.7406 50.4784 56.1718 50.4659 55.3906C50.4591 54.9901 50.2611 54.7899 49.872 54.7899C49.2634 54.7899 48.6548 54.791 48.0462 54.7899C47.1594 54.7876 46.5632 54.2676 46.5735 53.5057C46.5825 52.7472 47.1798 52.2419 48.0723 52.2419C49.6574 52.2396 51.2425 52.251 52.8277 52.2339C53.6827 52.226 54.3537 51.5209 54.3617 50.6783C54.3696 49.8438 53.6963 49.1284 52.8492 49.0966C52.3553 49.0773 51.8591 49.0909 51.364 49.0921C50.7986 49.0921 50.2365 49.0966 49.6813 48.9433C48.2097 48.538 47.1526 47.4456 46.7824 46.0354L39.0441 53.7736C41.6693 59.3375 47.8656 62.7564 54.0767 61.6448C59.7938 60.6217 64.1438 56.45 65.4462 50.7646C65.5609 50.265 65.5325 49.7359 65.7596 49.2613V48.8366C65.7062 48.7798 65.7062 48.723 65.7596 48.6663V46.9676C65.7062 46.9108 65.7062 46.854 65.7596 46.7973V46.4578ZM52.5847 33.8097L37.7485 48.6458C37.7928 49.3952 37.8973 50.1526 38.0653 50.9111C38.1028 51.0803 38.1437 51.2495 38.1891 51.4164L55.3427 34.2627C54.448 34.0209 53.5248 33.8665 52.5847 33.8097ZM48.925 34.0788C43.1625 35.2926 38.9953 39.8016 37.97 45.2121L49.1487 34.0334C49.0738 34.0481 49 34.0629 48.925 34.0788Z" fill="#532680"/>
<path d="M53.8769 29.0452C53.9325 29.0758 53.9882 29.1065 54.0427 29.1394L51.9193 31.2627C47.8475 31.1957 44.172 32.5458 40.8995 35.3096C39.2815 36.6756 38.0029 38.3231 37.0332 40.2069C36.939 40.3897 36.864 40.5248 36.5983 40.5033C33.6302 40.2625 30.7018 39.8117 27.8881 38.7955C26.3813 38.2505 24.9404 37.5703 23.7493 36.4564C21.7508 34.5897 21.7588 32.128 23.7708 30.2692C24.9665 29.1632 26.4086 28.4854 27.9165 27.9426C30.8267 26.8957 33.8516 26.4336 36.9253 26.2371C39.688 26.0611 42.4449 26.1372 45.1882 26.4994C48.2143 26.8991 51.1688 27.56 53.8769 29.0452Z" fill="#532680"/>
<path d="M56.8211 32.0303C56.1432 31.8543 55.5006 31.6715 54.8477 31.5466L55.856 30.5383C56.032 30.7268 56.1955 30.9267 56.3476 31.1413C56.5338 31.4024 56.6973 31.6761 56.8211 32.0303Z" fill="#532680"/>
<path d="M30.4021 52.7801L24.7134 58.4688C24.5351 58.3439 24.3591 58.2133 24.1865 58.0771C22.908 57.0631 22.1767 55.7993 22.2437 54.0972C22.3073 52.4871 22.2574 50.8725 22.2574 49.1931C24.7043 51.1518 27.4908 52.1306 30.4021 52.7801Z" fill="#532680"/>
<path d="M35.9966 53.609L29.1542 60.4514C28.3458 60.2152 27.551 59.945 26.7856 59.6089L33.1012 53.2933C34.0425 53.4364 34.9895 53.5386 35.941 53.6033C35.9603 53.6045 35.9785 53.6056 35.9966 53.609Z" fill="#532680"/>
<path d="M42.6868 61.7254C42.2519 61.7526 41.8545 61.7878 41.4559 61.8015C38.1755 61.9139 34.9246 61.7424 31.7283 61.0895L37.1581 55.6597C38.448 58.0646 40.2636 60.0483 42.5868 61.6209C42.6095 61.6357 42.6254 61.6607 42.6868 61.7254Z" fill="#532680"/>
<path d="M35.8036 43.2955C35.3676 44.8545 35.1496 46.4271 35.1712 48.0111L32.5573 50.625C30.4669 50.265 28.4242 49.7177 26.4666 48.8287C25.3153 48.3052 24.2422 47.6568 23.3849 46.7042C22.648 45.8844 22.2427 44.9419 22.2529 43.8201C22.2699 42.0953 22.2574 40.3694 22.2574 38.5833C25.4186 41.0722 29.0987 42.0203 32.9025 42.6312C33.795 42.7743 34.6966 42.8697 35.5959 42.9582C35.8706 42.9855 35.8672 43.0684 35.8036 43.2955Z" fill="#532680"/>
<path d="M68 21.6056L21.6056 68L20 66.3944L26.7856 59.6088L33.1011 53.2933L37.7486 48.6458L52.5848 33.8097L66.3944 20L68 21.6056Z" fill="#532680"/>
<path d="M68 21.6056L21.6056 68L20 66.3944L26.7856 59.6088L33.1011 53.2933L37.7486 48.6458L52.5848 33.8097L66.3944 20L68 21.6056Z" fill="#532680"/>
</g>
<defs>
<clipPath id="clip0_5106_52437">
<rect width="48" height="48" fill="white" transform="translate(20 20)"/>
</clipPath>
</defs>
</svg>
