<svg width="88" height="88" viewBox="0 0 88 88" fill="none" xmlns="http://www.w3.org/2000/svg">
<circle cx="44" cy="44" r="44" fill="#F8F1FF"/>
<g clip-path="url(#clip0_5106_52435)">
<path d="M62.3341 20C62.365 23.103 64.7314 25.3641 67.305 25.5495C67.7443 25.5808 67.9404 25.7224 67.8689 26.1946C67.8232 26.5003 67.9466 26.8786 67.8084 27.1091C67.6542 27.3672 67.2421 27.2181 66.9472 27.2757C64.3538 27.7768 62.5537 29.7836 62.3514 32.4607C62.3292 32.7551 62.2317 32.8352 61.964 32.819C61.5963 32.7964 61.1571 32.9229 60.8795 32.7601C60.6056 32.5985 60.7339 32.1074 60.6722 31.7629C60.233 29.2913 58.0924 27.3597 55.6014 27.2219C55.3287 27.2068 55.2127 27.1404 55.2313 26.8473C55.2559 26.474 55.1251 26.0318 55.2806 25.7424C55.4546 25.418 55.9481 25.5758 56.2985 25.5006C58.9227 24.9394 60.687 22.7722 60.766 20H62.3354H62.3341Z" fill="#532680"/>
<path d="M48.9612 34.9385C48.0507 33.7597 47.171 32.5559 46.3073 31.342C46.0581 30.99 45.8878 30.9361 45.5226 31.1992C43.7805 32.4544 42.0138 33.6745 40.2593 34.9122C38.632 36.061 37.0095 37.2159 35.3846 38.3672C34.5358 40.0671 33.5488 41.6869 32.6259 43.3442C32.4112 43.7275 32.3841 43.7288 32.1657 43.3467C31.5932 42.3495 31.0467 41.3349 30.4656 40.3415C30.0818 39.6875 29.8018 38.9672 29.2861 38.396C28.7629 38.391 28.2398 38.3998 27.7179 38.3772C27.4453 38.3647 27.259 38.4636 27.0813 38.6666C25.4009 40.5732 23.7032 42.466 22.0302 44.3789C20.6965 45.9022 20.6237 48.1721 22.008 49.7054C23.5477 51.4079 25.2158 52.9813 26.8062 54.6336C26.9912 54.8265 27.0714 54.725 27.1862 54.5584C27.5748 53.9859 27.9758 53.4235 28.4557 52.7382V53.3671C28.4557 58.0673 28.4631 62.7662 28.4459 67.4651C28.4434 67.9085 28.5754 68.0025 28.985 67.9975C30.7222 67.9749 32.4606 67.9712 34.1977 67.9987C34.6407 68.0062 34.7591 67.8923 34.7566 67.4363C34.7381 63.2522 34.7505 59.0682 34.7381 54.8841C34.7369 54.4983 34.8307 54.3805 35.2206 54.3856C36.7418 54.4094 38.2655 54.4069 39.7868 54.3868C40.1569 54.3818 40.2926 54.4607 40.2828 54.8679C40.2544 56.0379 40.2717 57.2092 40.2704 58.3804C40.3901 58.6009 40.6072 58.5746 40.7985 58.5759C42.5418 58.5859 44.2851 58.5859 46.0285 58.5759C46.2197 58.5746 46.4369 58.6009 46.5565 58.3804C46.5578 56.2559 46.5812 54.1325 46.5553 52.0092C46.5282 49.7042 44.8811 48.0494 42.6047 48.013C41.1896 47.9905 39.7744 48.0005 38.3593 48.0143C38.0496 48.0168 37.925 47.9404 37.9299 47.5996C37.9472 46.3657 37.941 45.1318 37.9324 43.8979C37.9312 43.6712 38.0027 43.5283 38.1915 43.3968C38.8491 42.9371 39.4944 42.4585 40.1458 41.9875C43.0477 39.8842 45.9471 37.7759 48.8575 35.6839C49.1981 35.4384 49.2277 35.2843 48.9612 34.9385ZM28.415 48.4966C28.0301 48.0794 27.7006 47.7124 27.3601 47.3566C27.2281 47.2188 27.2639 47.1236 27.3799 47.0046C27.7031 46.6714 28.0177 46.3294 28.415 45.9072V48.4966Z" fill="#532680"/>
<path d="M40.2717 58.3805C42.3666 58.4193 44.4616 58.4193 46.5566 58.3805C48.8798 58.388 51.2018 58.3955 53.525 58.403C53.694 58.403 53.8655 58.4206 54.0321 58.3993C54.3726 58.3554 54.4812 58.4807 54.4775 58.8377C54.4589 60.5088 54.4688 62.18 54.4688 63.8523C54.4688 65.1025 54.4602 66.3515 54.475 67.6017C54.4787 67.9086 54.3899 67.995 54.0851 67.995C48.5615 67.9863 43.0378 67.9863 37.5142 67.995C37.2218 67.995 37.1206 67.9274 37.1218 67.6104C37.1342 64.6741 37.1342 61.7365 37.1218 58.8002C37.1206 58.4519 37.2465 58.393 37.5487 58.3968C38.4556 58.4068 39.3636 58.388 40.2704 58.3805H40.2717Z" fill="#532680"/>
<path d="M31.3095 38.3672C31.2157 38.2156 31.0516 38.2206 30.9073 38.1818C27.0776 37.1421 25.5897 32.2214 28.2003 29.1911C29.692 27.4611 31.5797 26.8285 33.7659 27.3985C36.0349 27.991 37.3896 29.5544 37.8337 31.8782C38.3988 34.8321 36.2681 37.8448 33.3391 38.3008C33.3131 38.3384 33.2983 38.3935 33.2527 38.4035C32.6025 38.5551 31.9523 38.6278 31.3095 38.3659V38.3672Z" fill="#532680"/>
<path d="M35.4094 38.6465C34.4322 40.3765 33.4551 42.1078 32.4767 43.8378C32.4644 43.8603 32.4273 43.8691 32.3558 43.9104C31.9018 43.1049 31.4428 42.3019 30.9949 41.4914C30.4249 40.4605 29.7982 39.4608 29.2861 38.396C29.8019 38.9672 30.0819 39.6875 30.4656 40.3415C31.0467 41.3349 31.5933 42.3495 32.1658 43.3467C32.3842 43.7288 32.4113 43.7275 32.626 43.3442C33.5488 41.6869 34.5359 40.0671 35.3847 38.3672C35.513 38.4499 35.4674 38.5451 35.4094 38.6465Z" fill="#532680"/>
<path d="M50.1581 40.1322C50.126 40.0608 50.11 39.9756 50.0606 39.9218C49.16 38.9146 49.1624 38.9008 50.2408 38.0978C52.4319 36.4668 54.6268 34.8408 56.8069 33.1935C57.0895 32.9792 57.2289 32.983 57.3955 33.2924C57.5768 33.6269 58.0469 33.91 57.9741 34.237C57.9112 34.5176 57.4473 34.7105 57.1512 34.931C54.9624 36.5657 52.7712 38.198 50.5813 39.829C50.4715 39.9117 50.358 39.9894 50.1581 40.1322Z" fill="#532680"/>
<path d="M54.8414 30.187C54.8549 30.3286 54.7501 30.3574 54.6797 30.4062C53.2486 31.3771 51.8137 32.3417 50.3862 33.3175C50.2159 33.434 50.1147 33.424 50.0247 33.2424C50.0173 33.2286 50.0062 33.2173 49.9988 33.2035C49.7767 32.849 49.3658 32.4782 49.3942 32.1462C49.4164 31.8857 49.979 31.6664 50.3085 31.4422C51.4448 30.6693 52.5885 29.9076 53.7186 29.126C53.9506 28.9656 54.0727 28.9656 54.2183 29.2237C54.4083 29.5606 54.6378 29.8751 54.8414 30.187Z" fill="#532680"/>
<path d="M47.4572 40.1748C47.5189 40.24 47.5707 40.2926 47.6201 40.3477C48.2156 41.0258 48.1584 41.6292 47.4486 42.1579C47.1402 42.3871 46.8218 42.6051 46.527 42.8506C46.3172 43.026 46.1963 42.9872 46.0569 42.7679C45.841 42.431 45.4079 42.1002 45.4227 41.7833C45.4388 41.4488 45.9853 41.2797 46.295 41.0317C46.5948 40.7912 46.9107 40.5707 47.2204 40.3414C47.2931 40.2876 47.3672 40.2375 47.4572 40.1736V40.1748Z" fill="#532680"/>
</g>
<defs>
<clipPath id="clip0_5106_52435">
<rect width="46.8837" height="48" fill="white" transform="translate(21 20)"/>
</clipPath>
</defs>
</svg>
