<svg width="40" height="40" viewBox="0 0 40 40" fill="none" xmlns="http://www.w3.org/2000/svg">
<circle cx="20" cy="20" r="20" fill="#F8F1FF"/>
<path d="M30 21V17C30 12 28 10 23 10H17C12 10 10 12 10 17V23C10 28 12 30 17 30H21" stroke="#532680" stroke-width="2" stroke-linecap="round" stroke-linejoin="round"/>
<path d="M15.3301 22.492L17.7101 19.402C18.0501 18.962 18.6801 18.882 19.1201 19.222L20.9501 20.662C21.3901 21.002 22.0201 20.922 22.3601 20.492L24.6701 17.512M28.5501 24.98C28.2501 24.93 27.8901 24.66 27.7501 24.38L27.4701 23.81C26.9301 22.72 26.0501 22.72 25.5201 23.81L25.2401 24.38C25.1001 24.66 24.7501 24.92 24.4401 24.98L24.0601 25.04C22.9201 25.23 22.6501 26.07 23.4701 26.9L23.8201 27.25C24.0501 27.49 24.1801 27.95 24.1101 28.27L24.0601 28.48C23.7501 29.86 24.4801 30.39 25.6801 29.67L25.9401 29.52C26.2501 29.34 26.7501 29.34 27.0601 29.52L27.3201 29.67C28.5301 30.4 29.2601 29.86 28.9401 28.48L28.8901 28.27" stroke="#532680" stroke-width="2" stroke-linecap="round" stroke-linejoin="round"/>
</svg>
