<svg width="99" height="100" viewBox="0 0 99 100" fill="none" xmlns="http://www.w3.org/2000/svg">
<path d="M91.4799 15.3941C91.0987 15.3627 90.7097 15.3706 90.3338 15.3053C85.831 14.5251 82.8975 11.2891 82.5479 6.70146C82.4874 5.94207 82.2903 5.30793 81.5096 5H80.7394C80.0402 5.43319 79.8773 6.10647 79.8378 6.86848C79.6223 11.0308 76.4969 14.5224 72.3437 15.2453C71.6918 15.3601 71.0215 15.3758 70.3722 15.5037C69.6967 15.6367 69.3786 16.1508 69.4181 16.7876C69.4549 17.4243 69.8307 17.8706 70.5116 17.9697C70.8401 18.0193 71.174 18.0402 71.5025 18.0689C75.6426 18.4499 78.9204 21.3831 79.7011 25.428C79.8299 26.0986 79.8378 26.7928 79.9719 27.4635C80.0981 28.0924 80.5765 28.4003 81.1968 28.4003C81.8198 28.4003 82.2719 28.0793 82.4244 27.4556C82.5032 27.1373 82.5269 26.8032 82.5479 26.4744C82.682 24.4546 83.4259 22.6801 84.7612 21.1587C86.5408 19.1362 88.8171 18.1446 91.5035 18.0063C92.4604 17.9567 92.9992 17.44 92.9887 16.6962C92.9782 15.9603 92.4104 15.4697 91.4773 15.3914L91.4799 15.3941ZM81.1968 21.8085C79.9719 19.5224 78.2764 17.9201 76.0816 16.7015C78.329 15.5167 79.964 13.8648 81.1994 11.6388C82.4191 13.857 84.0567 15.5115 86.3068 16.7015C84.1067 17.9149 82.4244 19.5277 81.1968 21.8058V21.8085Z" fill="#F2815B"/>
<path d="M74.8441 75.013C74.2211 75.0104 73.5982 75.0209 72.9752 75.0104C68.8588 74.9374 64.7372 75.1696 60.6208 74.8904C60.4315 70.8325 60.5919 66.7719 60.5367 62.714C60.5288 62.1608 60.5209 61.6075 60.4867 61.0569C60.2344 56.9963 56.9039 53.6013 52.8112 53.429C49.5728 53.2933 46.3238 53.3507 43.0801 53.3716C42.3468 53.3768 42.055 53.2411 42.076 52.4243C42.1338 49.953 42.1233 47.4791 42.0786 45.0078C42.0681 44.3633 42.3178 44.0188 42.8147 43.6691C50.0433 38.5621 57.2588 33.4421 64.4743 28.3194C65.8018 27.3774 65.9279 26.5893 64.9632 25.3001C63.5201 23.369 62.0639 21.4457 60.6076 19.5251C59.5615 18.1446 58.836 18.0324 57.3823 19.0292C53.3422 21.798 49.3047 24.572 45.2671 27.3434C43.8267 28.3299 42.3862 29.3163 40.8826 30.3471C43.1248 23.5099 41.5845 18.1602 36.5507 15.1148C31.8219 12.2521 25.8181 12.9254 22.0145 16.7693C20.0142 18.7918 18.8891 21.2396 18.6605 24.0605C18.3766 27.5783 19.57 30.608 21.9935 33.2098C21.5703 33.4186 21.2102 33.3351 20.8685 33.3246C19.9958 33.2985 19.3045 33.583 18.7078 34.2458C15.2591 38.0819 11.7604 41.8685 8.33269 45.7229C5.30192 49.131 5.19152 53.5621 8.26698 56.952C11.1611 60.1357 14.3022 63.1028 17.3724 66.1247C18.2346 66.9729 19.2545 66.845 20.0089 65.8925C20.6345 65.1044 21.1892 64.2615 21.9436 63.2098V64.5355C21.9436 73.8413 21.9436 83.1472 21.9462 92.453C21.9462 92.7766 21.9225 93.108 21.9699 93.4264C22.1066 94.3424 22.6428 94.9582 23.5865 94.9713C26.9616 95.0104 30.3367 95.0078 33.7118 94.9739C34.6897 94.9661 35.2574 94.3319 35.3415 93.3638C35.3705 93.0402 35.3599 92.714 35.3599 92.3878C35.3626 84.1258 35.3705 75.8612 35.3468 67.5965C35.3442 66.9154 35.4441 66.644 36.2326 66.6571C39.6078 66.7067 42.9829 66.6806 46.358 66.6728C46.8101 66.6728 47.1492 66.6232 47.1387 67.2938C47.094 69.666 47.1098 72.0433 47.1308 74.4181C47.1334 74.893 46.9784 75.0313 46.5105 75.0209C45.2671 74.9948 44.0212 75.0078 42.7752 75.013C40.9378 75.0183 40.4226 75.5219 40.42 77.3121C40.42 82.453 40.42 87.5939 40.4226 92.7349C40.4226 94.4598 40.9667 94.9948 42.7253 94.9948H74.9756C76.8129 94.9948 77.3544 94.4468 77.3571 92.5939C77.3597 87.5496 77.3571 82.5078 77.3571 77.4661C77.3571 75.5063 76.8524 75.0157 74.8441 75.013ZM21.9567 24.8826C22.125 20.2453 25.9338 16.5893 30.4813 16.7015C35.1155 16.8163 38.8402 20.642 38.7088 25.1514C38.5695 29.8408 34.7449 33.4708 30.1106 33.3142C25.5158 33.1576 21.7937 29.3111 21.9567 24.8826ZM34.3138 36.7119C33.5488 38.2385 32.826 39.6816 32.0269 41.2735C31.2383 39.7103 30.5049 38.2568 29.7216 36.7119H34.3138ZM21.8779 54.4468C21.0656 53.583 20.3664 52.8158 19.6383 52.0772C19.3465 51.7824 19.3255 51.5892 19.6357 51.2891C20.3585 50.5898 21.042 49.8539 21.8779 48.9875V54.4468ZM34.2349 63.3507C32.5947 63.3533 32.0059 63.9405 32.0059 65.5976C32.0006 73.9614 31.9901 82.3251 32.0243 90.6863C32.0269 91.5005 31.835 91.7275 31.0122 91.691C29.4088 91.6179 27.8001 91.6284 26.1967 91.6884C25.4633 91.7145 25.274 91.524 25.2793 90.7855C25.3082 83.202 25.2977 75.6211 25.2977 68.0402C25.2977 60.4593 25.2898 53.0715 25.3056 45.5872C25.3082 44.6816 25.1925 43.857 24.2462 43.489C23.321 43.1315 22.6375 43.6013 21.9962 44.2537C20.0694 46.2056 18.1058 48.1237 16.1607 50.06C14.9568 51.2578 14.9436 52.0042 16.1055 53.2124C17.6222 54.7912 19.131 56.3727 20.674 57.9254C21.0814 58.3351 21.2076 58.6143 20.7949 59.1232C20.0562 60.0313 19.3912 61.0021 18.7288 61.9702C18.4502 62.3773 18.2793 62.3669 17.9323 62.0198C15.6034 59.6842 13.2219 57.3982 10.9166 55.0418C8.89784 52.9802 8.7927 50.2427 10.6984 48.095C13.9894 44.3841 17.3567 40.7385 20.6819 37.0538C20.95 36.7563 21.2286 36.6545 21.6176 36.6597C22.8294 36.678 24.0438 36.6989 25.2556 36.6519C25.8129 36.631 26.0573 36.8633 26.2834 37.3252C27.5924 39.9765 28.9357 42.6096 30.2605 45.2505C30.6258 45.976 31.0517 46.6127 31.9848 46.6284C32.9679 46.6441 33.4016 45.9969 33.7854 45.227C35.1786 42.4374 36.6033 39.666 37.9938 36.8737C38.233 36.3935 38.5327 36.0177 38.9795 35.7098C45.2566 31.4092 51.5337 27.1086 57.7845 22.7688C58.4128 22.333 58.673 22.4322 59.062 23.001C59.6824 23.917 60.3527 24.8043 61.0676 25.6524C61.5171 26.1848 61.4172 26.4327 60.8679 26.8189C55.2032 30.8012 49.5623 34.8147 43.9134 38.8179C42.5544 39.7834 41.2138 40.7724 39.8338 41.7041C39.0505 42.2338 38.7219 42.9228 38.7246 43.8387C38.7351 47.4191 38.7167 50.9969 38.7351 54.5772C38.743 56.0752 39.3817 56.6806 40.9168 56.6858C44.4891 56.6962 48.0613 56.6832 51.6336 56.691C55.1638 56.6989 57.1721 58.6874 57.1773 62.1868C57.1852 66.19 57.1668 70.1931 57.1931 74.1962C57.1957 74.8095 57.0722 75.0496 56.3914 75.0287C54.688 74.9791 52.9821 74.9869 51.2787 75.0261C50.64 75.0417 50.4481 74.8669 50.456 74.2119C50.4954 71.3178 50.477 68.4212 50.4718 65.5245C50.4718 63.9066 49.9171 63.3533 48.2979 63.3533C43.6111 63.3481 38.9243 63.3481 34.2349 63.3507ZM73.0672 91.6832C68.3147 91.6571 63.5622 91.6701 58.8123 91.6701C54.0624 91.6701 49.373 91.6493 44.6547 91.6884C43.9081 91.6936 43.7452 91.5005 43.7531 90.7803C43.7899 86.9102 43.7899 83.0376 43.7531 79.1675C43.7452 78.4629 43.9633 78.3325 44.6284 78.3325C54.1308 78.3559 63.6332 78.3559 73.1382 78.3325C73.8163 78.3325 74.0214 78.5047 74.0135 79.1936C73.9819 83.0637 73.9714 86.9363 74.0187 90.8064C74.0293 91.5971 73.7506 91.6884 73.0672 91.6832Z" fill="#F2815B"/>
<path d="M76.7942 27.0198C76.994 27.0589 77.0702 27.2181 77.1675 27.3512C77.5223 27.8288 77.843 28.3324 78.2373 28.776C78.5948 29.1805 78.5133 29.3762 78.0901 29.6764C75.7349 31.3569 76.3526 30.8402 74.0132 32.5417C71.834 34.1283 69.6471 35.7019 67.4863 37.3094C67.0842 37.6095 66.8607 37.6722 66.569 37.1972C66.1878 36.5761 65.3835 35.9759 65.4124 35.3992C65.4413 34.7938 66.4454 34.4754 67.029 34.0474C71.0796 31.0803 72.1942 30.3653 76.2527 27.4112C76.4367 27.2781 76.6207 27.145 76.7968 27.0198H76.7942Z" fill="#F2815B"/>
<path d="M67.0473 25.5294C66.8686 25.5895 66.7976 25.4877 66.7266 25.4068C66.653 25.3207 66.5952 25.2215 66.5321 25.1276C66.1299 24.5117 65.3703 23.8619 65.4255 23.2904C65.4833 22.7032 66.5006 22.4162 67.1051 22.0091C69.1791 20.6155 68.2827 21.2419 70.3488 19.8353C70.8377 19.5039 71.1269 19.3943 71.4476 20.0153C71.7683 20.639 72.5674 21.2836 72.4675 21.782C72.3676 22.2805 71.4187 22.6197 70.8299 23.0112C68.7244 24.4099 69.6128 23.8228 67.5073 25.2163C67.3417 25.3259 67.1787 25.4381 67.0473 25.5242V25.5294Z" fill="#F2815B"/>
<path d="M63.6118 40.0992C62.3895 40.9916 61.1751 41.8737 59.9659 42.7662C59.7372 42.9332 59.5637 42.9541 59.4087 42.6879C59.3797 42.6383 59.3377 42.5992 59.3061 42.5522C58.8672 41.9337 58.0733 41.3048 58.0891 40.6968C58.1022 40.1279 59.1432 39.7938 59.7215 39.345C60.305 38.8935 60.9306 38.4969 61.5063 38.0324C61.8112 37.7871 61.9689 37.8419 62.1739 38.1315C62.6313 38.7813 63.1097 39.4128 63.6118 40.0966V40.0992Z" fill="#F2815B"/>
</svg>
