<svg width="97" height="100" viewBox="0 0 97 100" fill="none" xmlns="http://www.w3.org/2000/svg">
<path d="M92 30.4466C92 29.8172 91.6653 29.2348 91.1222 28.9202C90.5792 28.6055 89.9097 28.6055 89.3667 28.9202L75.7484 36.8082C75.2054 37.1229 74.8706 37.7053 74.8706 38.3346C74.8706 38.964 75.2054 39.5464 75.7484 39.8611L88.9407 47.5025V66.0638H63.8599C62.8908 66.0638 62.1043 66.8528 62.1043 67.825V73.9988H51.2434L58.921 72.3198C59.4078 72.2141 59.8268 71.9041 60.0726 71.4697C60.3184 71.0352 60.3699 70.5162 60.213 70.0419L53.3524 49.3812C53.226 49.0008 52.9755 48.6744 52.6385 48.4583L44.3734 43.1065V34.265L52.5495 33.3327C52.9451 33.2881 53.3126 33.1096 53.5935 32.8278L63.7756 22.5961C64.1174 22.2532 64.3023 21.7812 64.2882 21.2951C64.2742 20.809 64.0588 20.3511 63.696 20.0294L58.1626 15.1331C57.4978 14.5436 56.4983 14.546 55.8336 15.1378L48.0928 22.0442L41.3024 22.5162C43.196 20.6611 44.3757 18.0732 44.3757 15.2129C44.3734 9.5816 39.8067 5 34.1936 5C28.5806 5 24.0138 9.5816 24.0138 15.2129C24.0138 18.362 25.4417 21.18 27.6817 23.0564L16.3433 24.0544C15.8869 24.0943 15.4655 24.3104 15.1683 24.6579L5.4262 35.984C4.80825 36.7025 4.86911 37.7828 5.5643 38.4286L10.433 42.9468C11.1329 43.5973 12.2213 43.5667 12.8861 42.8787L21.6872 33.7648L25.8419 33.6309L24.5148 47.3264L18.7004 59.9464L6.22439 70.4176C5.85689 70.7252 5.63218 71.1691 5.59941 71.6481C5.56664 72.1272 5.73049 72.5969 6.05117 72.9515L11.8749 79.3883C12.219 79.7687 12.6965 79.966 13.1763 79.966C13.5462 79.966 13.9183 79.8485 14.2343 79.609L28.8427 68.5178C29.0721 68.344 29.2524 68.1186 29.3741 67.8579L35.7408 54.1483L43.5659 58.9084L47.9079 73.0759C48.0273 73.4634 48.266 73.7804 48.575 73.9988H37.4964C36.5273 73.9988 35.7408 74.7879 35.7408 75.7601V82.8685H10.3347C9.36563 82.8685 8.57915 83.6575 8.57915 84.6297V93.2387C8.57915 94.211 9.36563 95 10.3347 95H36.7005C36.8363 95 36.9697 94.9836 37.0985 94.953C37.2272 94.9836 37.3583 95 37.4964 95H90.2281C91.1971 95 91.9836 94.211 91.9836 93.2387V69.8423C91.9836 69.8282 91.9836 69.8117 91.9836 69.7977V46.4599C91.993 46.3824 92 46.3049 92 46.225V30.4466ZM34.1936 8.5225C37.8709 8.5225 40.8623 11.5237 40.8623 15.2129C40.8623 18.9022 37.8709 21.9033 34.1936 21.9033C30.5164 21.9033 27.5249 18.9022 27.5249 15.2129C27.5249 11.5237 30.5164 8.5225 34.1936 8.5225ZM34.1936 25.4282C34.945 25.4282 35.6753 25.3436 36.3799 25.1887L35.6168 27.8658L34.1562 25.4258C34.1679 25.4258 34.1796 25.4258 34.1913 25.4258L34.1936 25.4282ZM46.7258 57.234C46.5994 56.8207 46.3256 56.4685 45.9581 56.2454L35.8883 50.1186C35.4623 49.8603 34.945 49.7945 34.4675 49.9401C33.99 50.0857 33.5967 50.4286 33.3861 50.8818L26.378 65.9746L13.3987 75.8305L9.88293 71.944L21.2565 62.3957C21.4554 62.229 21.6146 62.02 21.7246 61.7828L27.8292 48.5335C27.9111 48.355 27.965 48.1624 27.9837 47.9652L29.5333 31.9777C29.5824 31.4728 29.4115 30.9726 29.0675 30.6039C28.7234 30.2352 28.2388 30.0333 27.7309 30.0474L20.8703 30.2705C20.4138 30.2845 19.9831 30.4771 19.6671 30.8059L11.5659 39.1965L9.20178 37.0008L17.3662 27.5065L30.6123 26.3393L34.6945 33.1613C35.055 33.7624 35.7362 34.0935 36.429 33.9996C37.1219 33.908 37.6953 33.4125 37.8873 32.7386L39.7622 26.1609L48.9378 25.5221C49.324 25.4963 49.6915 25.3413 49.9818 25.0806L57.0086 18.8106L59.9766 21.436L51.5477 29.9065L42.4259 30.9468C41.5388 31.0477 40.8694 31.8016 40.8694 32.6963V44.0693C40.8694 44.6681 41.1713 45.2247 41.6722 45.5487L50.2229 51.0861L56.2713 69.2975L50.794 70.4951L46.7305 57.234H46.7258ZM88.4889 43.1746L80.1372 38.337L88.4889 33.4994V43.1746ZM34.945 91.4775H12.0902V86.391H34.945V91.4775ZM39.2496 77.5213H62.1043V91.4775H39.2496V77.5213ZM88.4702 91.4775H65.6154V69.5863H88.4702V91.4775Z" fill="#F2815B"/>
</svg>
