<svg width="40" height="40" viewBox="0 0 40 40" fill="none" xmlns="http://www.w3.org/2000/svg">
<circle cx="20" cy="20" r="20" fill="#F8F1FF"/>
<path d="M28.1851 14.463V25.3227C28.1851 25.825 27.8257 26.2361 27.3787 26.2361H26.2775V29.4444H24.9816V26.2361H23.8803C23.4365 26.2361 23.074 25.8257 23.074 25.3227V14.463C23.074 13.9607 23.4365 13.5496 23.8803 13.5496H24.9816V9H26.2775V13.5496H27.3787C27.8257 13.553 28.1851 13.96 28.1851 14.463Z" fill="#532680"/>
<path d="M11.8064 13.5496H12.9076V9H14.2035V13.5496H15.3048C15.7486 13.5496 16.1111 13.96 16.1111 14.463V25.3227C16.1111 25.825 15.7486 26.2361 15.3048 26.2361H14.2035V29.4444H12.9076V26.2361H11.8064C11.3594 26.2361 11 25.8257 11 25.3227V14.4624C11 13.96 11.3594 13.553 11.8064 13.5489V13.5496Z" fill="#532680"/>
<path d="M20 35H19V32.4302H20V35ZM20 29.7872H19V27.1442H20V29.7872ZM20 24.5012H19V21.8581H20V24.5012ZM20 19.2151H19V16.5721H20V19.2151ZM20 13.9291H19V11.286H20V13.9291ZM20 8.64302H19V6H20V8.64302Z" fill="#532680"/>
</svg>
