<svg width="88" height="88" viewBox="0 0 88 88" fill="none" xmlns="http://www.w3.org/2000/svg">
<circle cx="44" cy="44" r="44" fill="#F8F1FF"/>
<path d="M55.7588 40.1921C54.0981 40.1921 52.5391 40.6056 51.1671 41.3273C51.0379 43.6621 49.7261 45.6935 47.8208 46.8329C50.6749 47.7522 53.0424 49.7663 54.4287 52.3786H64.8985L64.8981 52.3783C65.3188 52.38 65.6613 52.0402 65.663 51.6195V50.0958C65.663 44.6226 61.2328 40.192 55.7592 40.192L55.7588 40.1921Z" fill="#532680"/>
<path d="M32.9038 40.192C27.4302 40.192 23 44.6226 23 50.0958V51.6195C23.0017 52.0378 23.3404 52.3766 23.7588 52.3783H34.2337C35.6197 49.7666 37.9867 47.7536 40.8402 46.8342C38.9319 45.6949 37.6174 43.6611 37.4892 41.3228C36.1186 40.6032 34.5613 40.192 32.9033 40.192L32.9038 40.192Z" fill="#532680"/>
<path d="M44.3311 35.6205C41.3949 35.6205 38.9941 38.0155 38.9941 40.9519C38.9941 43.8881 41.3949 46.2833 44.3311 46.2833C47.2672 46.2833 49.6625 43.8883 49.6625 40.9519C49.6625 38.0158 47.2675 35.6205 44.3311 35.6205Z" fill="#532680"/>
<path d="M44.3313 47.8073C38.8577 47.8073 34.4275 52.2375 34.4275 57.7111V59.2351C34.4268 59.4371 34.5064 59.6313 34.6489 59.7748C34.7911 59.9183 34.9846 59.9993 35.1869 60H53.47H53.4697C53.6727 60.0006 53.868 59.9204 54.0115 59.7769C54.155 59.6333 54.2353 59.4381 54.2346 59.2351V57.7111C54.2346 52.2378 49.8047 47.8073 44.3308 47.8073L44.3313 47.8073Z" fill="#532680"/>
<path d="M55.7585 28C52.8224 28 50.4216 30.395 50.4216 33.3314C50.4216 36.2676 52.8224 38.6683 55.7585 38.6683C58.6947 38.6683 61.09 36.2676 61.09 33.3314C61.09 30.3953 58.6949 28 55.7585 28Z" fill="#532680"/>
<path d="M32.9038 28C29.9677 28 27.5669 30.395 27.5669 33.3314C27.5669 36.2676 29.9677 38.6683 32.9038 38.6683C35.8399 38.6683 38.2352 36.2676 38.2352 33.3314C38.2352 30.3953 35.8402 28 32.9038 28Z" fill="#532680"/>
</svg>
