<svg width="40" height="40" viewBox="0 0 40 40" fill="none" xmlns="http://www.w3.org/2000/svg">
<circle cx="20" cy="20" r="20" fill="#F8F1FF"/>
<path d="M15.8312 30.0777C11.707 28.4113 9 24.4213 9 20.0008C9 15.1342 12.2599 10.8597 16.9586 9.53548L16.958 8.4965C16.958 8.11601 17.3714 7.88211 17.6999 8.06141L22.2656 10.0918C22.663 10.2677 22.6525 10.824 22.2656 10.9949L17.6613 13.0418C17.33 13.1887 16.9598 12.9435 16.96 12.5898L16.9596 11.6189C13.3955 12.8753 11.0004 16.229 11.0004 20.0003C11.0004 23.6231 13.1997 26.873 16.5807 28.2389L15.8307 30.0774L15.8312 30.0777ZM16.1257 21.6468L17.9818 21.4634C18.1337 22.2983 18.4961 22.8574 19.1399 23.1065V20.4959C17.7593 20.1062 16.481 19.4205 16.481 17.7691C16.481 16.1766 17.7419 15.4045 19.1399 15.2043V14.1435H20.7741V15.208C22.2862 15.4204 23.4497 16.2427 23.5123 18.0129L21.6029 18.0781C21.4925 17.4208 21.2242 17.0439 20.7742 16.86V18.9494C22.4146 19.3678 23.789 19.9849 23.789 21.9556C23.789 23.8043 22.3599 24.6173 20.7742 24.805V25.8555H19.14V24.7924C17.4374 24.5581 16.3579 23.5827 16.1259 21.6463L16.1257 21.6468ZM20.774 23.1615C21.3609 23.008 21.8798 22.6471 21.8798 21.967C21.8798 21.4016 21.3628 21.096 20.774 20.9023V23.1615ZM19.1398 16.8106C18.6982 16.9261 18.298 17.1694 18.298 17.6426C18.298 18.0624 18.6849 18.3319 19.1398 18.513V16.8106ZM22.2523 26.9581C22.5836 26.8111 22.9538 27.0564 22.9538 27.41L22.9542 28.3844C26.5216 27.1266 28.9134 23.7753 28.9134 20.0006C28.9134 16.4357 26.7907 13.2357 23.4912 11.8276L24.28 10.0051C28.297 11.7188 30.913 15.6595 30.913 20.0006C30.913 24.8643 27.6502 29.1377 22.9549 30.4605V31.5035C22.9549 31.884 22.5419 32.1179 22.214 31.9386L17.6483 29.9082C17.2506 29.7323 17.2604 29.176 17.6483 29.0051L22.2519 26.9582L22.2523 26.9581Z" fill="#532680"/>
</svg>
