<svg width="67" height="67" viewBox="0 0 67 67" fill="none" xmlns="http://www.w3.org/2000/svg">
<circle cx="33.5" cy="33.5" r="33.5" fill="#FAF5FF"/>
<path d="M45.0203 38.4537C45.0138 33.4999 45.0154 28.546 45.0154 23.5922C45.0146 22.0261 44.3157 21.1743 43.0205 21.1733C36.6811 21.1714 30.3417 21.1724 24.0023 21.1763C23.7825 21.1763 23.5555 21.1909 23.3446 21.2563C22.5011 21.5168 22.0211 22.3364 22.0211 23.4966C22.0195 28.4738 22.0228 33.452 22.0123 38.4303C22.0114 38.4888 22.0058 38.5493 21.9961 38.6118H45.0283C45.0227 38.5571 45.0203 38.5034 45.0203 38.4537ZM43.6863 36.389C43.6863 37.0564 43.5643 37.2038 43.0132 37.2038H24.0912C23.4488 37.2038 23.3478 37.0847 23.3478 36.3275V23.6244C23.3478 22.9033 23.4553 22.7726 24.0508 22.7716H42.9737C43.5764 22.7716 43.6863 22.9014 43.6863 23.6127V36.389Z" fill="#532680"/>
<path d="M45.1314 38.9555C45.0732 38.8687 45.0417 38.7399 45.028 38.6121H21.9957C21.9674 38.7818 21.9036 38.9545 21.8204 39.0794C20.6173 40.8777 19.3997 42.6624 18.1877 44.4519C18.1312 44.5348 18.0649 44.6236 18.0423 44.7231C17.8556 45.5535 18.3073 46.5214 18.9973 46.74C19.2171 46.8102 19.4562 46.8141 19.6865 46.8151C28.8983 46.818 38.1101 46.8122 47.3218 46.8278C48.1443 46.8288 48.7261 46.5087 49 45.5349V44.6587C47.708 42.7599 46.4145 40.8631 45.1314 38.9555ZM30.4343 43.5864C30.7211 43.0673 30.9821 42.5823 31.2592 42.1111C31.298 42.0437 31.4168 42.0193 31.4984 42.0193C32.8477 42.0135 34.1978 42.0125 35.5471 42.0213C35.6336 42.0213 35.754 42.074 35.8 42.152C36.0667 42.6067 36.3155 43.0761 36.5959 43.5864H30.4343Z" fill="#532680"/>
<path d="M40.0902 28.2836C39.9383 28.8261 39.5222 29.1881 39.0245 29.1706C38.8476 29.1637 38.753 29.2379 38.6561 29.4008C37.9798 30.5356 37.2987 31.6665 36.6127 32.7945C36.5101 32.9633 36.4713 33.1008 36.54 33.3194C36.7105 33.8609 36.5513 34.4366 36.1748 34.784C35.8055 35.1235 35.2892 35.146 34.9006 34.8396C34.5144 34.5342 34.3124 33.9497 34.4465 33.4062C34.5006 33.1877 34.4756 33.0501 34.3609 32.8842C33.5529 31.7182 32.7522 30.5444 31.9474 29.3745C31.7309 29.0593 31.3721 29.074 31.171 29.4038C30.4777 30.5395 29.7885 31.6782 29.0904 32.8101C28.983 32.9837 28.9668 33.1243 29.0282 33.337C29.189 33.898 29.012 34.4844 28.6186 34.8172C28.2307 35.146 27.6975 35.1323 27.3193 34.7859C26.9485 34.4464 26.7966 33.858 26.938 33.3165C27.0785 32.7788 27.5124 32.3788 27.9916 32.4032C28.1952 32.4139 28.2994 32.3232 28.4085 32.1427C29.0783 31.0323 29.7538 29.9258 30.4325 28.8222C30.5359 28.6544 30.5763 28.5178 30.5028 28.2982C30.3185 27.747 30.4721 27.1576 30.8558 26.7966C31.2227 26.4521 31.7737 26.4356 32.1543 26.7595C32.5494 27.0952 32.7271 27.6845 32.5663 28.2387C32.5066 28.4446 32.5397 28.5695 32.6463 28.7227C33.4406 29.8711 34.23 31.0245 35.0169 32.1797C35.1389 32.3593 35.2521 32.5242 35.4694 32.3837C35.7183 32.4949 35.8273 32.2929 35.9502 32.087C36.6046 30.9923 37.2623 29.9014 37.9241 28.8134C38.0323 28.6359 38.0824 28.4934 38.0097 28.2563C37.84 27.7001 38.0162 27.1069 38.4048 26.7702C38.7862 26.4395 39.3267 26.4453 39.704 26.7849C40.0862 27.1264 40.243 27.7372 40.0902 28.2836Z" fill="#532680"/>
</svg>
