<svg width="72" height="72" viewBox="0 0 72 72" fill="none" xmlns="http://www.w3.org/2000/svg">
<path d="M55.4478 48.232C55.1766 47.8171 54.7897 47.4943 54.3389 47.3028V53.3801C54.7897 53.1886 55.1754 52.8646 55.4478 52.4497C55.7191 52.036 55.8649 51.5487 55.8661 51.0503V49.6326C55.8649 49.1342 55.7191 48.6469 55.4478 48.232ZM51.3255 39.8249C51.0531 40.2398 50.9085 40.7259 50.9073 41.2242V42.642C50.9085 43.1403 51.0531 43.6289 51.3255 44.0426C51.5967 44.4574 51.9824 44.7815 52.4345 44.973V38.8944C51.9837 39.0872 51.5979 39.41 51.3255 39.8249ZM55.4478 48.232C55.1766 47.8171 54.7897 47.4943 54.3389 47.3028V53.3801C54.7897 53.1886 55.1754 52.8646 55.4478 52.4497C55.7191 52.036 55.8649 51.5487 55.8661 51.0503V49.6326C55.8649 49.1342 55.7191 48.6469 55.4478 48.232ZM51.3255 39.8249C51.0531 40.2398 50.9085 40.7259 50.9073 41.2242V42.642C50.9085 43.1403 51.0531 43.6289 51.3255 44.0426C51.5967 44.4574 51.9824 44.7815 52.4345 44.973V38.8944C51.9837 39.0872 51.5979 39.41 51.3255 39.8249ZM63.0091 36.3388C60.4573 33.739 56.9967 32.277 53.3879 32.2721C49.7766 32.2721 46.3136 33.7328 43.7607 36.3327C41.2078 38.9325 39.7734 42.4591 39.7734 46.1367C39.7722 49.813 41.2065 53.3396 43.7607 55.9394C46.3136 58.5393 49.7754 60 53.3867 60C56.9979 60 60.4597 58.5393 63.0127 55.9394C65.5656 53.3396 67 49.813 67 46.1367C66.9964 42.4603 65.5608 38.9374 63.0091 36.3388ZM57.7694 42.642C57.7766 42.9034 57.679 43.1575 57.4994 43.3453C57.321 43.5319 57.0739 43.6387 56.8171 43.6387C56.5604 43.6387 56.3145 43.5319 56.1349 43.3453C55.9565 43.1575 55.8589 42.9034 55.8661 42.642V41.2242C55.8649 40.7271 55.7203 40.2398 55.4478 39.8249C55.1766 39.41 54.7909 39.0859 54.3389 38.8944V45.275C55.3104 45.4959 56.1807 46.0483 56.8039 46.84C57.1149 47.2353 57.3559 47.6784 57.5199 48.151C57.6838 48.6223 57.7682 49.1219 57.7694 49.6301V51.0479C57.7694 52.063 57.427 53.0475 56.8039 53.838C56.1807 54.6297 55.3104 55.1821 54.3389 55.4043V57.6899C54.3462 57.9513 54.2485 58.2042 54.0689 58.392C53.8905 58.5798 53.6446 58.6853 53.3867 58.6853C53.1287 58.6853 52.8841 58.5798 52.7045 58.392C52.5249 58.2042 52.4284 57.9513 52.4345 57.6899V55.4043C51.4629 55.1821 50.5927 54.6297 49.9695 53.838C49.6585 53.4427 49.4174 52.9984 49.2535 52.527C49.0896 52.0556 49.0052 51.5548 49.004 51.0479V49.6301C49.0185 49.1047 49.4403 48.6874 49.9562 48.6874C50.2142 48.6874 50.4492 48.7917 50.6204 48.9624C50.7916 49.1318 50.9 49.3674 50.9073 49.6301V51.0479C50.9085 51.5462 51.0543 52.0336 51.3267 52.4484C51.5979 52.8633 51.9837 53.1862 52.4345 53.3789V46.9984C51.4629 46.7762 50.5927 46.225 49.9695 45.4333C49.3463 44.6416 49.0052 43.6571 49.004 42.642V41.2242C49.0052 40.2103 49.3463 39.2259 49.9695 38.4341C50.5927 37.6424 51.4629 37.09 52.4345 36.8691V34.5822C52.4489 34.0569 52.872 33.6395 53.3867 33.6395C53.9014 33.6395 54.3245 34.0569 54.3389 34.5822V36.8691C55.3104 37.09 56.1807 37.6424 56.8039 38.4341C57.427 39.2259 57.7682 40.2103 57.7694 41.2242V42.642ZM54.3389 53.3801C54.7897 53.1886 55.1754 52.8646 55.4478 52.4497C55.7191 52.036 55.8649 51.5487 55.8661 51.0503V49.6326C55.8649 49.1342 55.7191 48.6469 55.4478 48.232C55.1766 47.8171 54.7897 47.4943 54.3389 47.3028V53.3801ZM51.3255 39.8249C51.0531 40.2398 50.9085 40.7259 50.9073 41.2242V42.642C50.9085 43.1403 51.0531 43.6289 51.3255 44.0426C51.5967 44.4574 51.9824 44.7815 52.4345 44.973V38.8944C51.9837 39.0872 51.5979 39.41 51.3255 39.8249ZM63.0091 36.3388C60.4573 33.739 56.9967 32.277 53.3879 32.2721C49.7766 32.2721 46.3136 33.7328 43.7607 36.3327C41.2078 38.9325 39.7734 42.4591 39.7734 46.1367C39.7722 49.813 41.2065 53.3396 43.7607 55.9394C46.3136 58.5393 49.7754 60 53.3867 60C56.9979 60 60.4597 58.5393 63.0127 55.9394C65.5656 53.3396 67 49.813 67 46.1367C66.9964 42.4603 65.5608 38.9374 63.0091 36.3388ZM57.7694 42.642C57.7766 42.9034 57.679 43.1575 57.4994 43.3453C57.321 43.5319 57.0739 43.6387 56.8171 43.6387C56.5604 43.6387 56.3145 43.5319 56.1349 43.3453C55.9565 43.1575 55.8589 42.9034 55.8661 42.642V41.2242C55.8649 40.7271 55.7203 40.2398 55.4478 39.8249C55.1766 39.41 54.7909 39.0859 54.3389 38.8944V45.275C55.3104 45.4959 56.1807 46.0483 56.8039 46.84C57.1149 47.2353 57.3559 47.6784 57.5199 48.151C57.6838 48.6223 57.7682 49.1219 57.7694 49.6301V51.0479C57.7694 52.063 57.427 53.0475 56.8039 53.838C56.1807 54.6297 55.3104 55.1821 54.3389 55.4043V57.6899C54.3462 57.9513 54.2485 58.2042 54.0689 58.392C53.8905 58.5798 53.6446 58.6853 53.3867 58.6853C53.1287 58.6853 52.8841 58.5798 52.7045 58.392C52.5249 58.2042 52.4284 57.9513 52.4345 57.6899V55.4043C51.4629 55.1821 50.5927 54.6297 49.9695 53.838C49.6585 53.4427 49.4174 52.9984 49.2535 52.527C49.0896 52.0556 49.0052 51.5548 49.004 51.0479V49.6301C49.0185 49.1047 49.4403 48.6874 49.9562 48.6874C50.2142 48.6874 50.4492 48.7917 50.6204 48.9624C50.7916 49.1318 50.9 49.3674 50.9073 49.6301V51.0479C50.9085 51.5462 51.0543 52.0336 51.3267 52.4484C51.5979 52.8633 51.9837 53.1862 52.4345 53.3789V46.9984C51.4629 46.7762 50.5927 46.225 49.9695 45.4333C49.3463 44.6416 49.0052 43.6571 49.004 42.642V41.2242C49.0052 40.2103 49.3463 39.2259 49.9695 38.4341C50.5927 37.6424 51.4629 37.09 52.4345 36.8691V34.5822C52.4489 34.0569 52.872 33.6395 53.3867 33.6395C53.9014 33.6395 54.3245 34.0569 54.3389 34.5822V36.8691C55.3104 37.09 56.1807 37.6424 56.8039 38.4341C57.427 39.2259 57.7682 40.2103 57.7694 41.2242V42.642ZM54.3389 53.3801C54.7897 53.1886 55.1754 52.8646 55.4478 52.4497C55.7191 52.036 55.8649 51.5487 55.8661 51.0503V49.6326C55.8649 49.1342 55.7191 48.6469 55.4478 48.232C55.1766 47.8171 54.7897 47.4943 54.3389 47.3028V53.3801ZM51.3255 39.8249C51.0531 40.2398 50.9085 40.7259 50.9073 41.2242V42.642C50.9085 43.1403 51.0531 43.6289 51.3255 44.0426C51.5967 44.4574 51.9824 44.7815 52.4345 44.973V38.8944C51.9837 39.0872 51.5979 39.41 51.3255 39.8249ZM63.0091 36.3388C60.4573 33.739 56.9967 32.277 53.3879 32.2721C49.7766 32.2721 46.3136 33.7328 43.7607 36.3327C41.2078 38.9325 39.7734 42.4591 39.7734 46.1367C39.7722 49.813 41.2065 53.3396 43.7607 55.9394C46.3136 58.5393 49.7754 60 53.3867 60C56.9979 60 60.4597 58.5393 63.0127 55.9394C65.5656 53.3396 67 49.813 67 46.1367C66.9964 42.4603 65.5608 38.9374 63.0091 36.3388ZM57.7694 42.642C57.7766 42.9034 57.679 43.1575 57.4994 43.3453C57.321 43.5319 57.0739 43.6387 56.8171 43.6387C56.5604 43.6387 56.3145 43.5319 56.1349 43.3453C55.9565 43.1575 55.8589 42.9034 55.8661 42.642V41.2242C55.8649 40.7271 55.7203 40.2398 55.4478 39.8249C55.1766 39.41 54.7909 39.0859 54.3389 38.8944V45.275C55.3104 45.4959 56.1807 46.0483 56.8039 46.84C57.1149 47.2353 57.3559 47.6784 57.5199 48.151C57.6838 48.6223 57.7682 49.1219 57.7694 49.6301V51.0479C57.7694 52.063 57.427 53.0475 56.8039 53.838C56.1807 54.6297 55.3104 55.1821 54.3389 55.4043V57.6899C54.3462 57.9513 54.2485 58.2042 54.0689 58.392C53.8905 58.5798 53.6446 58.6853 53.3867 58.6853C53.1287 58.6853 52.8841 58.5798 52.7045 58.392C52.5249 58.2042 52.4284 57.9513 52.4345 57.6899V55.4043C51.4629 55.1821 50.5927 54.6297 49.9695 53.838C49.6585 53.4427 49.4174 52.9984 49.2535 52.527C49.0896 52.0556 49.0052 51.5548 49.004 51.0479V49.6301C49.0185 49.1047 49.4403 48.6874 49.9562 48.6874C50.2142 48.6874 50.4492 48.7917 50.6204 48.9624C50.7916 49.1318 50.9 49.3674 50.9073 49.6301V51.0479C50.9085 51.5462 51.0543 52.0336 51.3267 52.4484C51.5979 52.8633 51.9837 53.1862 52.4345 53.3789V46.9984C51.4629 46.7762 50.5927 46.225 49.9695 45.4333C49.3463 44.6416 49.0052 43.6571 49.004 42.642V41.2242C49.0052 40.2103 49.3463 39.2259 49.9695 38.4341C50.5927 37.6424 51.4629 37.09 52.4345 36.8691V34.5822C52.4489 34.0569 52.872 33.6395 53.3867 33.6395C53.9014 33.6395 54.3245 34.0569 54.3389 34.5822V36.8691C55.3104 37.09 56.1807 37.6424 56.8039 38.4341C57.427 39.2259 57.7682 40.2103 57.7694 41.2242V42.642ZM54.3389 53.3801C54.7897 53.1886 55.1754 52.8646 55.4478 52.4497C55.7191 52.036 55.8649 51.5487 55.8661 51.0503V49.6326C55.8649 49.1342 55.7191 48.6469 55.4478 48.232C55.1766 47.8171 54.7897 47.4943 54.3389 47.3028V53.3801ZM51.3255 39.8249C51.0531 40.2398 50.9085 40.7259 50.9073 41.2242V42.642C50.9085 43.1403 51.0531 43.6289 51.3255 44.0426C51.5967 44.4574 51.9824 44.7815 52.4345 44.973V38.8944C51.9837 39.0872 51.5979 39.41 51.3255 39.8249ZM34.6072 51.8359L15.2769 51.8384C14.7176 51.8396 14.18 52.0655 13.7834 52.4693C13.3869 52.8732 13.1651 53.4206 13.1639 53.9914V57.707C13.1651 58.2766 13.3881 58.8228 13.7834 59.2267C14.1788 59.6293 14.7152 59.8564 15.2745 59.8564H39.1719C37.0541 57.5843 35.4895 54.8372 34.6072 51.8359ZM34.2408 41.8797H15.2769C14.7176 41.8797 14.18 42.1068 13.7834 42.5094C13.3869 42.9133 13.1651 43.4607 13.1639 44.0303V47.7471C13.1651 48.3179 13.3869 48.8654 13.7834 49.2692C14.18 49.6718 14.7176 49.8989 15.2769 49.9002H34.1407C33.6417 47.2463 33.6755 44.5188 34.2408 41.8797ZM11.9151 31.9198C11.3559 31.9198 10.8183 32.1469 10.4217 32.5507C10.0251 32.9534 9.80215 33.5008 9.80094 34.0716V37.7872C9.80215 38.3592 10.0251 38.9055 10.4217 39.3093C10.8171 39.7132 11.3546 39.9403 11.9151 39.9403H34.7579C35.7366 36.9071 37.4121 34.1575 39.648 31.9198H11.9151ZM54.627 22.5908C54.2304 22.187 53.6929 21.9611 53.1324 21.9599H19.0991C18.5386 21.9599 17.9998 22.187 17.6032 22.5896C17.2067 22.9935 16.9837 23.5409 16.9825 24.1117V27.8286C16.9837 28.3993 17.2067 28.9468 17.602 29.3494C17.9986 29.7533 18.5362 29.9804 19.0967 29.9816H41.8972C45.2349 27.507 49.2583 26.1763 53.3879 26.18C54.0147 26.18 54.6342 26.2107 55.2466 26.2709V24.1117C55.2466 23.5409 55.0236 22.9947 54.627 22.5908ZM42.6421 12.6322C42.2456 12.2283 41.708 12.0012 41.1475 12H7.11299C6.55371 12.0012 6.01612 12.2283 5.61955 12.6309C5.22299 13.0348 5 13.5822 5 14.153V17.8687C5 18.4394 5.22299 18.9869 5.61955 19.3908C6.01612 19.7946 6.55371 20.0217 7.11299 20.0217H41.1499C41.7104 20.0205 42.2468 19.7934 42.6421 19.3895C43.0375 18.9869 43.2605 18.4394 43.2617 17.8687V14.153C43.2605 13.5822 43.0375 13.036 42.6421 12.6322Z" fill="#F2815B"/>
</svg>
