<svg width="67" height="67" viewBox="0 0 67 67" fill="none" xmlns="http://www.w3.org/2000/svg">
<circle cx="33.5" cy="33.5" r="33.5" fill="#FAF5FF"/>
<path d="M45.4667 48.9333C45.467 49.2162 45.3546 49.4876 45.1546 49.6879C44.9543 49.8879 44.6829 50.0002 44.4 50H23.0667C22.7838 50.0002 22.5124 49.8879 22.3121 49.6879C22.1121 49.4876 21.9998 49.2162 22 48.9333C22 45.8214 23.2362 42.8369 25.4367 40.6365C27.6372 38.436 30.6214 37.1998 33.7335 37.1998C36.8456 37.1998 39.83 38.436 42.0304 40.6365C44.2309 42.837 45.4671 45.8212 45.4671 48.9333H45.4667ZM33.7334 22.2666C32.036 22.2666 30.4081 22.9409 29.2079 24.1411C28.0077 25.3414 27.3334 26.9692 27.3334 28.6666C27.3334 30.364 28.0076 31.9919 29.2079 33.1921C30.4082 34.3923 32.036 35.0666 33.7334 35.0666C35.4308 35.0666 37.0586 34.3924 38.2588 33.1921C39.4591 31.9918 40.1334 30.364 40.1334 28.6666C40.1315 26.9697 39.4567 25.3431 38.2567 24.1433C37.0569 22.9432 35.4303 22.2685 33.7334 22.2666ZM24.1333 31.8666C24.6988 31.8659 25.2412 31.6409 25.6409 31.2409C26.0409 30.8411 26.266 30.2987 26.2667 29.7333V27.6C26.2667 26.8378 25.86 26.1335 25.2 25.7524C24.54 25.3714 23.7267 25.3714 23.0667 25.7524C22.4067 26.1336 22 26.8379 22 27.6V29.7333C22.0007 30.2988 22.2257 30.8412 22.6258 31.2409C23.0255 31.6409 23.5679 31.8659 24.1333 31.8666ZM33.7334 20.1333C36.6472 20.1361 39.3579 21.6269 40.9215 24.0859C41.5329 23.6719 42.2422 23.4247 42.9786 23.3692C41.7325 21.1847 39.7529 19.5124 37.3912 18.648C35.0293 17.784 32.4379 17.784 30.0757 18.648C27.7141 19.5124 25.7345 21.1847 24.4883 23.3692C25.2248 23.4247 25.9341 23.6719 26.5455 24.0859C28.1088 21.6269 30.8195 20.1361 33.7336 20.1333H33.7334ZM43.3334 25.4666C42.7679 25.4673 42.2255 25.6923 41.8258 26.0924C41.4258 26.4921 41.2008 27.0345 41.2 27.6V29.7333C41.2012 30.4566 41.5693 31.13 42.1777 31.5214C42.0148 32.2247 41.6186 32.8526 41.0538 33.3026C40.4891 33.7526 39.7888 33.9983 39.0666 34C38.6855 34 38.3333 34.2033 38.1429 34.5333C37.9524 34.8633 37.9524 35.27 38.1429 35.6C38.3333 35.93 38.6855 36.1333 39.0666 36.1333C40.3369 36.1297 41.5641 35.6726 42.5269 34.844C43.4898 34.0155 44.1248 32.87 44.3176 31.6145C44.6626 31.4357 44.9522 31.166 45.1548 30.8343C45.3574 30.5026 45.4652 30.1219 45.4667 29.7334V27.6C45.466 27.0345 45.241 26.4921 44.8409 26.0924C44.4412 25.6924 43.8988 25.4674 43.3333 25.4667L43.3334 25.4666Z" fill="#532680"/>
</svg>
