<svg width="67" height="67" viewBox="0 0 67 67" fill="none" xmlns="http://www.w3.org/2000/svg">
<circle cx="33.5" cy="33.5" r="33.5" fill="#FAF5FF"/>
<g clip-path="url(#clip0_4696_54349)">
<path d="M31.8378 49.5664C32.8945 50.1445 34.1735 50.1445 35.2302 49.5664C47.4906 42.9057 48.9956 32.47 49.0676 25.2029C49.0723 24.6385 48.8548 24.095 48.4627 23.6893C48.0702 23.2836 47.5344 23.0481 46.97 23.0336C41.9291 22.9474 37.1603 20.0904 34.7664 18.3942H34.7668C34.4067 18.1378 33.9758 18 33.5339 18C33.0919 18 32.661 18.1378 32.3009 18.3942C29.9072 20.0904 25.1384 22.9479 20.0973 23.0336H20.0978C19.5333 23.0481 18.9975 23.2836 18.605 23.6893C18.213 24.095 17.9954 24.6386 18.0001 25.2029C18.0717 32.4704 19.5769 42.9055 31.8375 49.5664H31.8378ZM26.9044 32.2047C27.3156 31.7934 27.8736 31.5622 28.4551 31.5622C29.0366 31.5622 29.5946 31.7934 30.0058 32.2047L32.1368 34.3356L38.0595 28.723V28.7234C38.6282 28.1842 39.4413 27.9897 40.1926 28.2128C40.9434 28.4359 41.5185 29.043 41.701 29.8049C41.8832 30.5668 41.6451 31.3684 41.0765 31.9073L33.6042 38.9883C33.1891 39.3812 32.6375 39.5971 32.0658 39.5894C31.4946 39.5817 30.9486 39.3509 30.5445 38.9469L26.9042 35.3061C26.4929 34.8945 26.2617 34.3369 26.2617 33.7554C26.2617 33.1735 26.4929 32.6159 26.9042 32.2047L26.9044 32.2047Z" fill="#532680"/>
</g>
<defs>
<clipPath id="clip0_4696_54349">
<rect width="31.1351" height="32" fill="white" transform="translate(18 18)"/>
</clipPath>
</defs>
</svg>
