<svg width="150" height="46" viewBox="0 0 150 46" fill="none" xmlns="http://www.w3.org/2000/svg">
<path d="M149 46.0001H1V6.42006L1.9918 9.71006C2.9836 13.0001 4.95758 19.5901 6.94118 21.3701C8.92479 23.1501 10.8988 20.1201 12.8824 17.0901L12.9016 17.0601C14.8756 14.0401 16.8496 11.0201 18.8139 9.74006C20.7975 8.46006 22.7715 8.93006 24.7551 10.1701C26.7387 11.4101 28.7127 13.4301 30.6963 13.4601C32.6799 13.4901 34.6539 11.5401 36.6375 14.7301C38.6211 17.9201 40.5951 26.2601 42.5787 28.3301C44.5623 30.4001 46.5362 26.2001 48.5198 23.5701C50.5034 20.9401 52.4774 19.8801 54.461 16.4101C56.4446 12.9401 58.4186 7.06006 60.4022 5.13006C62.3858 3.21006 64.3598 5.24006 66.3434 5.46006C68.327 5.67006 70.301 4.06006 72.2846 2.89006C74.2682 1.72006 76.2422 0.980064 78.2258 5.40006C80.2094 9.82006 82.1833 19.4001 84.167 20.0901C86.4779 20.8901 88.866 19.5601 90.3777 17.5801C92.2939 15.0801 93.5554 11.9501 96.6078 10.5901C97.8981 10.0101 99.4195 10.0201 100.585 10.8401C104.619 13.6501 99.458 20.6201 104.793 22.3901C105.678 22.6801 106.622 22.7301 107.547 22.5801C110.31 22.1401 112.679 23.9401 114.114 26.2001C114.518 26.8401 114.855 27.5101 115.163 28.2001C115.895 29.8901 117.599 30.8001 119.371 30.6301C120.478 30.5301 121.644 30.7601 122.645 31.2601C124.648 32.2601 126.14 34.0601 127.671 35.7301C129.202 37.4001 130.916 39.0501 133.073 39.5901C134.874 40.0401 136.761 39.6501 138.62 39.7001C139.563 39.7201 140.526 39.8001 141.403 40.2001C142.154 40.5501 142.808 41.1201 143.29 41.8101C143.482 42.0901 143.665 42.3901 143.82 42.7201C144.619 44.3701 146.082 45.6001 147.835 45.8601C148.201 45.9201 148.596 45.9601 149.029 45.9801L149 46.0001Z" fill="url(#paint0_linear_3675_49280)"/>
<path d="M1.46094 5.92006L2.44952 9.21006C3.43811 12.5001 5.40568 19.0901 7.38286 20.8701C9.36003 22.6501 11.3276 19.6201 13.3048 16.5901L13.324 16.5601C15.2915 13.5401 17.2591 10.5201 19.2171 9.24006C21.1943 7.96006 23.1618 8.43006 25.139 9.67006C27.1162 10.9101 29.0838 12.9301 31.0609 12.9601C33.0381 12.9901 35.0057 11.0401 36.9829 14.2301C38.96 17.4201 40.9276 25.7601 42.9048 27.8301C44.8819 29.9001 46.8495 25.7001 48.8267 23.0701C50.8039 20.4401 52.7714 19.3801 54.7486 15.9101C56.7258 12.4401 58.6934 6.56006 60.6705 4.63006C62.6477 2.71006 64.6153 4.74006 66.5924 4.96006C68.5696 5.17006 70.5372 3.56006 72.5144 2.39006C74.4915 1.22006 76.4591 0.480064 78.4363 4.90006C80.4135 9.32006 82.381 18.9001 84.3582 19.5901C86.6617 20.3901 89.042 19.0601 90.5489 17.0801C92.4589 14.5801 93.7162 11.4501 96.7587 10.0901C98.0448 9.51006 99.5613 9.52006 100.723 10.3401C104.744 13.1501 99.5997 20.1201 104.917 21.8901C105.8 22.1801 106.741 22.2301 107.662 22.0801C110.417 21.6401 112.778 23.4401 114.208 25.7001C114.611 26.3401 114.947 27.0101 115.254 27.7001C115.983 29.3901 117.682 30.3001 119.448 30.1301C120.552 30.0301 121.713 30.2601 122.712 30.7601C124.708 31.7601 126.196 33.5601 127.722 35.2301C129.248 36.9001 130.956 38.5501 133.106 39.0901C134.901 39.5401 136.782 39.1501 138.634 39.2001C139.575 39.2201 140.535 39.3001 141.408 39.7001C142.157 40.0501 142.81 40.6201 143.289 41.3101C143.481 41.5901 143.664 41.8901 143.817 42.2201C144.614 43.8701 146.073 45.1001 147.82 45.3601C148.184 45.4201 148.578 45.4601 149.01 45.4801" stroke="#B7214A" stroke-miterlimit="10"/>
<defs>
<linearGradient id="paint0_linear_3675_49280" x1="75" y1="2.00006" x2="75" y2="46.0001" gradientUnits="userSpaceOnUse">
<stop offset="0.123776" stop-color="#B7214A"/>
<stop offset="1" stop-color="#532680" stop-opacity="0"/>
</linearGradient>
</defs>
</svg>
