<svg width="72" height="72" viewBox="0 0 72 72" fill="none" xmlns="http://www.w3.org/2000/svg">
<path fill-rule="evenodd" clip-rule="evenodd" d="M66.9986 59.2554C66.9986 61.8717 64.8538 64 62.2205 64H53.3287C50.9735 64 49.0162 62.2997 48.6256 60.0713C48.653 59.8022 48.6674 59.5317 48.6674 59.2554V57.1787C48.6674 56.8624 48.653 56.5504 48.6241 56.2413C49.0119 53.5133 51.0528 51.2377 53.7597 50.5621C54.9056 51.3378 56.2878 51.7915 57.7739 51.7915C59.2599 51.7915 60.6436 51.3378 61.7895 50.5621C64.8019 51.3135 66.9986 54.0443 66.9986 57.1773V59.2554ZM45.1879 56.2413C44.8002 53.5133 42.7593 51.2377 40.0524 50.5621C38.9065 51.3378 37.5242 51.7915 36.0368 51.7915C34.5493 51.7915 33.167 51.3378 32.0211 50.5621C29.1701 51.272 27.0557 53.7566 26.8351 56.6764C26.8409 56.8166 26.8539 56.954 26.8539 57.0943V59.171C26.8539 59.327 26.8395 59.4787 26.8308 59.6333C27.0268 62.0721 29.0836 63.9986 31.5902 63.9986H40.4819C42.8371 63.9986 44.7944 62.2968 45.1851 60.0698C45.1591 59.8008 45.1433 59.5302 45.1433 59.254V57.1773C45.1433 56.861 45.1591 56.5504 45.1879 56.2398V56.2413ZM23.4278 56.6764C23.2418 53.7223 21.1144 51.1962 18.2389 50.4777C17.0944 51.2534 15.7107 51.7071 14.2247 51.7071C12.7386 51.7071 11.3564 51.2534 10.2105 50.4777C7.19807 51.2305 5 53.9627 5 57.0957V59.1724C5 61.7887 7.14474 63.917 9.7781 63.917H18.6698C21.1475 63.917 23.1885 62.0349 23.4234 59.6333C23.4177 59.5059 23.4033 59.3828 23.4033 59.254V57.1773C23.4033 57.0113 23.4191 56.8452 23.4263 56.6764H23.4278ZM14.2247 48.3251C16.2887 48.3251 17.9693 46.6563 17.9693 44.6067C17.9693 42.5572 16.2902 40.8884 14.2247 40.8884C12.1592 40.8884 10.48 42.5572 10.48 44.6067C10.48 46.6563 12.1607 48.3251 14.2247 48.3251ZM39.7814 44.6912C39.7814 42.6417 38.1008 40.9728 36.0368 40.9728C33.9727 40.9728 32.2921 42.6402 32.2921 44.6912C32.2921 46.7421 33.9727 48.4095 36.0368 48.4095C38.1008 48.4095 39.7814 46.7407 39.7814 44.6912ZM50.6233 44.6912C50.6233 41.3163 53.0087 38.4882 56.1927 37.7697C53.937 32.9665 49.4471 29.4528 44.1732 28.4495C41.9088 30.1856 39.0737 31.2232 35.9993 31.2232C32.9249 31.2232 30.0897 30.1856 27.8253 28.4495C22.5874 29.4457 18.112 32.9321 15.8405 37.6939C19.0057 38.4252 21.3753 41.2433 21.3753 44.6067C21.3753 45.7303 21.1043 46.7879 20.6373 47.7326C22.4981 48.5355 24.062 49.8723 25.1588 51.5282C26.2528 49.9109 27.7951 48.6056 29.6242 47.8156C29.1557 46.8724 28.8862 45.8133 28.8862 44.6912C28.8862 40.7753 32.0946 37.5894 36.0382 37.5894C39.9818 37.5894 43.1902 40.7753 43.1902 44.6912C43.1902 45.8147 42.9192 46.8724 42.4508 47.817C44.2756 48.6042 45.8149 49.9038 46.906 51.5153C47.9986 49.9038 49.538 48.6042 51.3627 47.817C50.8943 46.8724 50.6247 45.8147 50.6247 44.6926L50.6233 44.6912ZM35.9993 27.8412C41.5082 27.8412 45.9893 23.3915 45.9893 17.9213C45.9893 12.4511 41.5082 8 35.9993 8C30.4904 8 26.0092 12.4497 26.0092 17.9199C26.0092 23.3901 30.4904 27.8412 35.9993 27.8412ZM54.0292 44.6912C54.0292 46.7407 55.7099 48.4095 57.7739 48.4095C59.8379 48.4095 61.5185 46.7421 61.5185 44.6912C61.5185 42.6402 59.8379 40.9728 57.7739 40.9728C55.7099 40.9728 54.0292 42.6417 54.0292 44.6912Z" fill="#F2815B"/>
</svg>
