<svg width="72" height="72" viewBox="0 0 72 72" fill="none" xmlns="http://www.w3.org/2000/svg">
<path d="M14.9811 39.1432C11.9489 39.1432 9.49121 41.7013 9.49121 44.8573C9.49121 48.0134 11.9489 50.5715 14.9811 50.5715C18.0133 50.5715 20.4709 48.0134 20.4709 44.8573C20.4709 41.7013 18.0133 39.1432 14.9811 39.1432Z" fill="#F2815B"/>
<path d="M12.6269 51.7144C7.8622 51.7144 4 55.7344 4 60.6937C4 61.4148 4.56226 62.0001 5.25505 62.0001H24.7189C25.4039 62.0001 25.9594 61.4218 25.9594 60.7088C25.9594 55.7413 22.0905 51.7144 17.318 51.7144H12.6269Z" fill="#F2815B"/>
<path d="M57.0211 39.1433C53.9889 39.1433 51.5312 41.7014 51.5312 44.8575C51.5312 48.0136 53.9889 50.5716 57.0211 50.5716C60.0533 50.5716 62.511 48.0136 62.511 44.8575C62.511 41.7014 60.0533 39.1433 57.0211 39.1433Z" fill="#F2815B"/>
<path d="M54.667 51.7145C49.9022 51.7145 46.04 55.7345 46.04 60.6939C46.04 61.415 46.6023 62.0002 47.2951 62.0002H66.7589C67.4439 62.0002 67.9995 61.4219 67.9995 60.709C67.9995 55.7414 64.1306 51.7145 59.358 51.7145H54.667Z" fill="#F2815B"/>
<path d="M35.9996 10C32.9674 10 30.5098 12.5581 30.5098 15.7142C30.5098 18.8702 32.9674 21.4283 35.9996 21.4283C39.0318 21.4283 41.4895 18.8702 41.4895 15.7142C41.4895 12.5581 39.0318 10 35.9996 10Z" fill="#F2815B"/>
<path d="M33.6455 22.5709C28.8808 22.5709 25.0186 26.5909 25.0186 31.5503C25.0186 32.2714 25.5808 32.8566 26.2736 32.8566H45.7374C46.4224 32.8566 46.978 32.2784 46.978 31.5654C46.978 26.5979 43.1091 22.5709 38.3366 22.5709H33.6455Z" fill="#F2815B"/>
<path d="M13.2949 36.4308L16.6261 36.771C17.1482 31.238 19.9506 26.2287 24.317 23.0262L22.3893 20.179C17.2274 23.9656 13.9118 29.8887 13.2949 36.4308Z" fill="#F2815B"/>
<path d="M49.5781 20.1219L47.6504 22.9691C52.0347 26.1844 54.8493 31.2146 55.3737 36.7709L58.7048 36.4306C58.0857 29.8653 54.759 23.9213 49.5793 20.1207L49.5781 20.1219Z" fill="#F2815B"/>
<path d="M28.8914 56.4275L27.4902 59.5905C30.0617 60.8249 32.825 61.4426 35.5884 61.4426C38.3517 61.4426 41.0503 60.84 43.5961 59.6335L42.2105 56.4623C37.9735 58.4688 33.1195 58.4561 28.8925 56.4275H28.8914Z" fill="#F2815B"/>
<path d="M30.1445 50.7515L35.0476 45.6492L39.9495 50.7515L42.3157 48.2886L36.7209 42.4641V35.8779H33.3742V42.4641L27.7783 48.2886L30.1445 50.7515Z" fill="#F2815B"/>
</svg>
