<svg width="72" height="72" viewBox="0 0 72 72" fill="none" xmlns="http://www.w3.org/2000/svg">
<path d="M44.7431 28.6009C44.5608 28.5493 44.3686 28.5314 44.1783 28.5314H30.4272V28.5096H21.7961C20.5082 28.5096 19.4639 27.4632 19.4639 26.1726V18.6057C19.4639 13.9317 23.1851 10.1413 27.7741 10.1413C32.3631 10.1413 36.0802 13.9277 36.0802 18.6057V20.8414C36.0802 22.132 37.1245 23.1784 38.4124 23.1784H38.9791C40.267 23.1784 41.3112 22.132 41.3112 20.8414V17.7936C41.3132 10.175 35.252 4 27.7701 4C20.2882 4 14.231 10.175 14.231 17.7936V26.1726C14.231 27.4632 13.1868 28.5096 11.8988 28.5096H11.4629C10.1017 28.5096 9 29.6314 9 31.0173V55.0503C9 56.4343 10.1017 57.5561 11.4629 57.5561H30.1201C31.4476 57.5561 32.5255 56.4462 32.4503 55.1159C32.4324 54.7942 32.4225 54.4725 32.4225 54.1469C32.4225 46.3576 37.6971 39.7894 44.856 37.8337C45.8606 37.5597 46.5481 36.6304 46.5481 35.586V31.0173C46.5481 29.8637 45.7833 28.8928 44.7431 28.6009ZM27.78 50.2413C26.3375 50.2413 25.2418 48.9448 25.4796 47.5192L26.179 43.3237C26.3038 42.5732 26.0621 41.8028 25.5133 41.2746C24.8851 40.667 24.4908 39.8113 24.4908 38.8582C24.4908 37.0136 25.9571 35.5165 27.7721 35.5165C29.5871 35.5165 31.0553 37.0136 31.0553 38.8582C31.0553 39.8033 30.667 40.6512 30.0488 41.2568C29.5098 41.7809 29.272 42.5434 29.3929 43.286L30.0824 47.5311C30.3143 48.9527 29.2185 50.2453 27.78 50.2453V50.2413Z" fill="#F2815B"/>
<path d="M49.2942 40.2917C41.6677 40.2917 35.4678 46.5025 35.4678 54.1469C35.4678 61.7912 41.6677 68 49.2942 68C56.9207 68 63.1206 61.7892 63.1206 54.1469C63.1206 46.5045 56.9207 40.2917 49.2942 40.2917ZM54.4202 57.9969H47.8676C47.0175 57.9969 46.3498 57.3277 46.3498 56.4759V47.5648H49.3873V54.953H54.4202V57.9969Z" fill="#F2815B"/>
</svg>
