<svg width="72" height="72" viewBox="0 0 72 72" fill="none" xmlns="http://www.w3.org/2000/svg">
<path d="M28.9027 50.4854C28.85 50.4133 28.7652 50.3699 28.6739 50.3699H28.5836C26.2074 51.1475 23.5949 50.8907 21.4314 49.6646L18.1883 58.6738C18.011 59.1915 18.1625 59.7618 18.5771 60.133C18.9918 60.5053 19.5944 60.6126 20.1197 60.4063L24.668 58.6047C25.2814 58.3613 25.9872 58.5944 26.3159 59.1482L28.7222 63.2599C28.9961 63.7518 29.5483 64.0416 30.1273 63.9951C30.7074 63.9487 31.2026 63.5754 31.3874 63.0464L34.6778 53.899C32.351 53.5566 30.268 52.3252 28.9027 50.4854Z" fill="#F2815B"/>
<path d="M50.5761 49.6646C48.4104 50.8907 45.7957 51.1486 43.4174 50.3689H43.3271C43.2358 50.3699 43.151 50.4133 43.0983 50.4854C41.733 52.3252 39.649 53.5556 37.3232 53.8979L40.6136 63.0464C40.7995 63.5744 41.2958 63.9467 41.8748 63.991C42.4549 64.0364 43.0059 63.7466 43.2788 63.2537L45.6851 59.142C46.0138 58.5882 46.7196 58.3561 47.333 58.5985L51.8813 60.4012C52.4066 60.6064 53.0092 60.4991 53.4239 60.1279C53.8385 59.7556 53.99 59.1863 53.8127 58.6686L50.5761 49.6646Z" fill="#F2815B"/>
<path d="M55.2216 28.9782C55.2216 28.0501 55.5331 27.1467 56.111 26.4021C56.9801 25.2811 57.2304 23.8249 56.7803 22.4946C56.3312 21.1653 55.2387 20.1268 53.8487 19.7091C52.927 19.4327 52.1224 18.8779 51.5552 18.1271C50.9869 17.3774 50.6861 16.4719 50.6969 15.5448C50.7184 14.1454 50.0287 12.8222 48.8481 11.9993C47.6686 11.1763 46.1453 10.9567 44.765 11.4104C44.302 11.56 43.8164 11.6352 43.3276 11.6352C41.871 11.6342 40.5056 10.9567 39.6634 9.81608C38.8212 8.67652 37.4548 8 36.0003 8C34.5458 8 33.1793 8.67652 32.3361 9.81608C31.4949 10.9567 30.1296 11.6342 28.6729 11.6352C28.1841 11.6352 27.6986 11.56 27.2345 11.4104C25.8552 10.9567 24.3319 11.1763 23.1514 11.9993C21.9708 12.8222 21.2822 14.1454 21.3037 15.5448C21.3144 16.4719 21.0136 17.3774 20.4454 18.1271C19.8782 18.8779 19.0736 19.4327 18.1519 19.7091C16.7618 20.1268 15.6693 21.1653 15.2192 22.4946C14.7702 23.8249 15.0194 25.2811 15.8895 26.4021C16.4664 27.1467 16.779 28.0501 16.779 28.9782C16.779 29.9063 16.4664 30.8097 15.8895 31.5543C15.028 32.6743 14.7831 34.1253 15.231 35.4505C15.6801 36.7757 16.7683 37.81 18.1519 38.2298C19.0736 38.5072 19.8782 39.061 20.4454 39.8107C21.0136 40.5615 21.3144 41.4669 21.3037 42.3941C21.2822 43.7935 21.9719 45.1166 23.1514 45.9396C24.3319 46.7625 25.8552 46.9822 27.2356 46.5284C28.1508 46.2325 29.1424 46.2273 30.0608 46.515C30.9804 46.8017 31.7785 47.3658 32.3361 48.1228C33.1793 49.2613 34.5447 49.9389 36.0003 49.9389C37.4559 49.9389 38.8212 49.2613 39.6634 48.1228C40.2252 47.3689 41.0245 46.809 41.9429 46.5243C42.8614 46.2407 43.8519 46.2479 44.765 46.546C46.1453 46.9997 47.6686 46.779 48.8481 45.9561C50.0287 45.1342 50.7184 43.811 50.6969 42.4106C50.6861 41.4845 50.9869 40.578 51.5552 39.8283C52.1224 39.0785 52.927 38.5237 53.8487 38.2473C55.2387 37.8296 56.3312 36.7911 56.7803 35.4618C57.2304 34.1315 56.9801 32.6753 56.111 31.5543C55.5331 30.8097 55.2216 29.9063 55.2216 28.9782ZM43.782 36.0744H28.2303C27.676 36.0744 27.2281 35.6433 27.2281 35.1122C27.2281 31.4574 30.3133 28.4945 34.1204 28.4945H35.1022C33.1106 28.0975 31.6131 26.4031 31.6131 24.3725C31.6131 22.047 33.5779 20.1618 36.0003 20.1618C38.4227 20.1618 40.3864 22.047 40.3864 24.3725C40.3864 26.4031 38.8889 28.0975 36.8973 28.4945H37.8684C41.6808 28.4945 44.7725 31.4625 44.7725 35.1236C44.7725 35.6485 44.3288 36.0744 43.782 36.0744Z" fill="#F2815B"/>
</svg>
