<svg width="150" height="45" viewBox="0 0 150 45" fill="none" xmlns="http://www.w3.org/2000/svg">
<path d="M2.02778 8.71787L1 5.42331V45H149V4.28219L147.972 5.05102L147.972 5.05126C146.944 5.82017 144.889 7.3577 142.833 9.12006C140.778 10.8826 138.722 12.87 136.667 12.3815C134.611 11.8931 132.556 8.92871 130.5 9.26182C128.444 9.59493 126.389 13.2255 124.333 14.1126C122.278 14.9997 120.222 13.1434 118.167 11.5408C116.111 9.93815 114.056 8.58928 112 8.1399C109.944 7.69052 107.889 8.14063 105.833 9.0049C103.778 9.86917 101.722 11.1476 99.6667 10.2779C97.6111 9.40819 95.5556 6.39036 93.5 8.98529C91.4445 11.5802 89.3889 19.7879 87.3333 19.1015C85.2778 18.4151 83.2222 8.83452 81.1667 4.41163C79.1111 -0.0112714 77.0556 0.723475 75 1.89731C72.9445 3.07115 70.8889 4.68408 68.8333 4.47182C66.7778 4.25955 64.7222 2.22208 62.6667 4.14474C60.6111 6.0674 58.5556 11.9502 56.5 15.4217C54.4444 18.8932 52.3889 19.9535 50.3333 22.5845C48.2778 25.2154 46.2222 29.4171 44.1667 27.3482C42.1111 25.2793 40.0556 16.9397 38 13.746C35.9444 10.5522 33.8889 12.5041 31.8333 12.4716C29.7778 12.4392 27.7222 10.4223 25.6667 9.1774C23.6111 7.93255 21.5556 7.45976 19.5 8.74369C17.4522 10.0227 15.4045 13.0452 13.3567 16.0677L13.3333 16.1022C11.2778 19.1362 9.22222 22.1634 7.16667 20.3825C5.11111 18.6016 3.05556 12.0124 2.02778 8.71788L2.02778 8.71787Z" fill="url(#paint0_linear_3675_49229)"/>
<path d="M1 5.42331L2.02778 8.71787C3.05556 12.0124 5.11111 18.6016 7.16667 20.3825C9.22222 22.1634 11.2778 19.1362 13.3333 16.1022C15.3889 13.0682 17.4444 10.0276 19.5 8.74369C21.5556 7.45976 23.6111 7.93255 25.6667 9.1774C27.7222 10.4223 29.7778 12.4392 31.8333 12.4716C33.8889 12.5041 35.9444 10.5522 38 13.746C40.0556 16.9397 42.1111 25.2793 44.1667 27.3482C46.2222 29.4171 48.2778 25.2154 50.3333 22.5845C52.3889 19.9535 54.4444 18.8932 56.5 15.4217C58.5556 11.9502 60.6111 6.0674 62.6667 4.14474C64.7222 2.22208 66.7778 4.25955 68.8333 4.47182C70.8889 4.68408 72.9444 3.07115 75 1.89731C77.0556 0.723475 79.1111 -0.0112713 81.1667 4.41163C83.2222 8.83452 85.2778 18.4151 87.3333 19.1015C89.3889 19.7879 91.4444 11.5802 93.5 8.98529C95.5556 6.39036 97.6111 9.40819 99.6667 10.2779C101.722 11.1476 103.778 9.86917 105.833 9.0049C107.889 8.14063 109.944 7.69052 112 8.1399C114.056 8.58927 116.111 9.93815 118.167 11.5408C120.222 13.1434 122.278 14.9997 124.333 14.1126C126.389 13.2255 128.444 9.59493 130.5 9.26182C132.556 8.92871 134.611 11.8931 136.667 12.3815C138.722 12.87 140.778 10.8826 142.833 9.12006C144.889 7.35752 146.944 5.81986 147.972 5.05102L149 4.28219" stroke="#0ECB81"/>
<defs>
<linearGradient id="paint0_linear_3675_49229" x1="75" y1="1" x2="75" y2="45" gradientUnits="userSpaceOnUse">
<stop stop-color="#0ECB81" stop-opacity="0.5"/>
<stop offset="1" stop-color="#532680" stop-opacity="0"/>
</linearGradient>
</defs>
</svg>
