<svg width="72" height="72" viewBox="0 0 72 72" fill="none" xmlns="http://www.w3.org/2000/svg">
<path d="M20.9202 64H13.2935C11.5025 64 10 62.4991 10 60.7091L10.0004 48.7586C10.0004 46.969 11.5025 45.4677 13.2939 45.4677H20.9206C22.7116 45.4677 24.2141 46.9686 24.2141 48.7586V60.7091C24.2713 62.4987 22.7688 63.9996 20.9202 63.9996L20.9202 64Z" fill="#F2815B"/>
<path d="M39.8714 64H32.2446C30.4537 64 28.9512 62.4991 28.9512 60.7091L28.9516 40.1565C28.9516 38.3669 30.4537 36.8656 32.245 36.8656H39.8718C41.6627 36.8656 43.1652 38.3665 43.1652 40.1565V60.6513C43.1644 62.4985 41.6624 63.9995 39.8714 63.9995L39.8714 64Z" fill="#F2815B"/>
<path d="M58.7059 64H51.0796C49.2886 64 47.7861 62.4991 47.7861 60.7091V15.4473C47.7861 13.6577 49.2882 12.1564 51.0796 12.1564H58.7063C60.4973 12.1564 61.9998 13.6573 61.9998 15.4473V60.7091C61.9994 62.4986 60.497 63.9996 58.7059 63.9996V64Z" fill="#F2815B"/>
<path d="M37.6749 22.3176C37.6749 29.1298 32.1281 34.73 25.2529 34.73C18.493 34.73 13.0042 29.3031 12.8887 22.6063H25.7151V9.96301C32.3592 10.1942 37.6749 15.621 37.6749 22.3176Z" fill="#F2815B"/>
<path d="M23.5784 8V20.4701H11.0986C11.6185 13.8311 16.934 8.51959 23.5784 8Z" fill="#F2815B"/>
</svg>
