<svg width="160" height="119" viewBox="0 0 160 119" fill="none" xmlns="http://www.w3.org/2000/svg">
<path d="M43.1706 65.5657C47.7247 65.347 52.3394 65.5547 56.6186 65.5602C59.8307 65.5602 63.0428 65.5274 66.2384 65.2267C68.081 65.0518 69.9126 64.8386 71.7386 64.5434C85.5937 62.3128 104.003 54.7847 113.133 43.971C118.067 38.1322 126.174 33.1026 134.089 33.5837C143.01 34.1304 148.802 41.1391 151.107 48.8312C156.7 67.5393 152.828 92.3814 138.225 106.519C126.977 117.409 110.026 119.913 94.9605 118.459C83.2011 117.327 71.7166 114.102 60.7932 109.695C54.1875 107.033 47.6037 104.289 41.317 100.937C35.4703 97.8211 28.661 94.0926 24.6074 88.7185C19.3932 81.8082 21.8628 71.7106 29.9206 68.2172C33.9907 66.4513 38.5449 65.7898 43.1651 65.5657H43.1706Z" fill="#CFF5E6"/>
<path d="M141.822 57.7369C144.073 57.7369 145.898 55.9232 145.898 53.6858C145.898 51.4485 144.073 49.6348 141.822 49.6348C139.571 49.6348 137.747 51.4485 137.747 53.6858C137.747 55.9232 139.571 57.7369 141.822 57.7369Z" stroke="#0ECB81" stroke-miterlimit="10"/>
<path d="M153.554 28.4166C154.769 28.4166 155.754 27.4375 155.754 26.2298C155.754 25.022 154.769 24.043 153.554 24.043C152.339 24.043 151.354 25.022 151.354 26.2298C151.354 27.4375 152.339 28.4166 153.554 28.4166Z" fill="#0ECB81"/>
<path d="M71.1117 115.485C72.4179 115.485 73.4768 114.432 73.4768 113.134C73.4768 111.836 72.4179 110.783 71.1117 110.783C69.8055 110.783 68.7466 111.836 68.7466 113.134C68.7466 114.432 69.8055 115.485 71.1117 115.485Z" fill="#0ECB81"/>
<path d="M43.836 76.6251C44.7959 76.6251 45.574 75.8516 45.574 74.8975C45.574 73.9434 44.7959 73.1699 43.836 73.1699C42.8761 73.1699 42.0979 73.9434 42.0979 74.8975C42.0979 75.8516 42.8761 76.6251 43.836 76.6251Z" stroke="#0ECB81" stroke-miterlimit="10"/>
<path d="M29.5135 98.8262C30.4734 98.8262 31.2515 98.0528 31.2515 97.0987C31.2515 96.1446 30.4734 95.3711 29.5135 95.3711C28.5535 95.3711 27.7754 96.1446 27.7754 97.0987C27.7754 98.0528 28.5535 98.8262 29.5135 98.8262Z" stroke="#0ECB81" stroke-miterlimit="10"/>
<path d="M60.9967 14.6074H55.3755V20.1947H60.9967V14.6074Z" fill="#0ECB81"/>
<path d="M137.746 108.46H133.06V113.118H137.746V108.46Z" fill="#0ECB81"/>
<path d="M131.075 8.44043L129.084 11.8628H133.06L131.075 8.44043Z" stroke="#0ECB81" stroke-miterlimit="10"/>
<path d="M27.7754 40.4009L31.7575 33.5508H23.7932L27.7754 40.4009Z" stroke="#0ECB81" stroke-miterlimit="10"/>
<path d="M0.565918 79.9707L10.9558 76.1875" stroke="#0ECB81" stroke-miterlimit="10"/>
<path d="M159.434 86.7063L147.68 85.0225" stroke="#0ECB81" stroke-miterlimit="10"/>
<path d="M101.572 1L94.3994 10.1518" stroke="#0ECB81" stroke-miterlimit="10"/>
<path d="M86.7376 95.9617C104.873 95.9617 119.574 81.3491 119.574 63.3236C119.574 45.2981 104.873 30.6855 86.7376 30.6855C68.6027 30.6855 53.9014 45.2981 53.9014 63.3236C53.9014 81.3491 68.6027 95.9617 86.7376 95.9617Z" fill="#0ECB81"/>
<path d="M80.5225 76.9801C79.8019 76.9801 79.1144 76.7013 78.5974 76.2038L67.322 65.2479C66.2384 64.1928 66.2164 62.4597 67.278 61.3827C68.3395 60.3003 70.0831 60.2839 71.1666 61.339L80.4675 70.376L100.29 50.1152C101.352 49.0328 103.09 49.0109 104.179 50.0606C105.268 51.1157 105.29 52.8433 104.234 53.9257L82.4915 76.1546C81.98 76.674 81.287 76.9747 80.5555 76.9801C80.5445 76.9801 80.5335 76.9801 80.5225 76.9801Z" fill="white"/>
</svg>
