<svg width="235" height="55" viewBox="0 0 235 55" fill="none" xmlns="http://www.w3.org/2000/svg">
<path d="M60.9107 38.5383H58.2729C57.5397 38.5383 57.1719 38.1629 57.1719 37.4143V15.8115C57.1719 15.063 57.5397 14.6875 58.2729 14.6875H73.8722C78.4122 14.6875 81.0148 16.3233 81.0148 20.8888V22.2854C81.0148 25.4877 79.7123 27.2598 77.4095 28.0108C79.7123 28.7952 81.0148 30.5315 81.0148 33.7361V37.4167C81.0148 38.1653 80.647 38.5407 79.9138 38.5407H77.276C76.5756 38.5407 76.2078 38.1653 76.2078 37.4167V33.5663C76.2078 31.2489 75.006 30.1919 72.469 30.1919H62.0093V37.4167C62.0093 38.1653 61.6415 38.5407 60.9083 38.5407L60.9107 38.5383ZM76.2101 21.7043C76.2101 19.8293 75.2754 19.0114 73.139 19.0114H62.0117V25.8608H73.139C75.2754 25.8608 76.2101 25.0764 76.2101 23.2038V21.7043Z" fill="white"/>
<path d="M89.3929 30.838C89.3929 33.0191 90.5619 34.2125 92.6983 34.2125H107.464C108.164 34.2125 108.532 34.588 108.532 35.303V37.4148C108.532 38.1633 108.164 38.5388 107.464 38.5388H91.4286C87.0222 38.5388 84.5859 35.9822 84.5859 31.5196V21.7047C84.5859 17.2397 87.0222 14.6855 91.4286 14.6855H107.464C108.164 14.6855 108.532 15.061 108.532 15.8096V17.9213C108.532 18.6364 108.164 19.0118 107.464 19.0118H92.6983C90.5619 19.0118 89.3929 20.2052 89.3929 22.3863V24.498H104.793C105.494 24.498 105.861 24.8735 105.861 25.6221V27.5975C105.861 28.346 105.494 28.7215 104.793 28.7215H89.3929V30.8332V30.838Z" fill="white"/>
<path d="M124.66 19.0138H120.214C118.078 19.0138 116.909 20.2072 116.909 22.3883V37.4167C116.909 38.1653 116.541 38.5407 115.84 38.5407H113.203C112.469 38.5407 112.102 38.1653 112.102 37.4167V21.7067C112.102 17.2417 114.538 14.6875 118.977 14.6875H124.391C127.296 14.6875 129.299 15.8115 130.364 17.8228C131.4 15.8115 133.436 14.6875 136.338 14.6875H141.752C146.191 14.6875 148.627 17.2441 148.627 21.7067V37.4167C148.627 38.1653 148.259 38.5407 147.526 38.5407H144.888C144.188 38.5407 143.82 38.1653 143.82 37.4167V22.3883C143.82 20.2072 142.651 19.0138 140.515 19.0138H136.069C133.932 19.0138 132.763 20.2072 132.763 22.3883V37.4167C132.763 38.1653 132.395 38.5407 131.695 38.5407H129.024C128.324 38.5407 127.956 38.1653 127.956 37.4167V22.3883C127.956 20.2072 126.787 19.0138 124.651 19.0138H124.66Z" fill="white"/>
<path d="M152.641 31.5196V21.7047C152.641 17.2397 155.077 14.6855 159.483 14.6855H171.044C175.483 14.6855 177.92 17.2421 177.92 21.7047V31.5196C177.92 35.9846 175.483 38.5388 171.044 38.5388H159.483C155.077 38.5388 152.641 35.9822 152.641 31.5196ZM173.115 30.838V22.3863C173.115 20.2052 171.946 19.0118 169.809 19.0118H160.751C158.614 19.0118 157.445 20.2052 157.445 22.3863V30.838C157.445 33.0191 158.614 34.2125 160.751 34.2125H169.809C171.946 34.2125 173.115 33.0191 173.115 30.838Z" fill="white"/>
<path d="M185.801 38.5383H183.164C182.43 38.5383 182.062 38.1629 182.062 37.4143V15.8115C182.062 15.063 182.43 14.6875 183.164 14.6875H198.763C203.303 14.6875 205.905 16.3233 205.905 20.8888V22.2854C205.905 25.4877 204.603 27.2598 202.3 28.0108C204.603 28.7952 205.905 30.5315 205.905 33.7361V37.4167C205.905 38.1653 205.538 38.5407 204.804 38.5407H202.167C201.466 38.5407 201.098 38.1653 201.098 37.4167V33.5663C201.098 31.2489 199.897 30.1919 197.36 30.1919H186.9V37.4167C186.9 38.1653 186.532 38.5407 185.799 38.5407L185.801 38.5383ZM201.101 21.7043C201.101 19.8293 200.166 19.0114 198.03 19.0114H186.902V25.8608H198.03C200.166 25.8608 201.101 25.0764 201.101 23.2038V21.7043Z" fill="white"/>
<path d="M216.487 14.6855H227.38C231.787 14.6855 234.256 17.2421 234.256 21.7047V37.4148C234.256 38.1633 233.888 38.5388 233.155 38.5388H230.517C229.784 38.5388 229.416 38.1633 229.416 37.4148V31.2135H214.416V37.4148C214.416 38.1633 214.049 38.5388 213.348 38.5388H210.71C209.977 38.5388 209.609 38.1633 209.609 37.4148V21.7071C209.609 17.2421 212.046 14.6879 216.485 14.6879L216.487 14.6855ZM229.416 22.3863C229.416 20.2052 228.282 19.0118 226.111 19.0118H217.719C215.583 19.0118 214.414 20.2052 214.414 22.3863V26.8848H229.414V22.3863H229.416Z" fill="white"/>
<path d="M44.9778 12.1568L25.1899 0.493256C24.0748 -0.164419 22.7021 -0.164419 21.587 0.493256L1.80145 12.1568C0.686379 12.8145 0 14.027 0 15.3423V38.6671C0 39.9824 0.686379 41.1973 1.80145 41.8526L21.587 53.5161C22.7021 54.1738 24.0748 54.1738 25.1899 53.5161L44.9778 41.8526C46.0929 41.1973 46.7792 39.9824 46.7792 38.6671V15.3423C46.7792 14.027 46.0929 12.8169 44.9778 12.1568ZM10.7127 35.448V38.4781C10.7127 39.8126 9.29307 40.6425 8.16393 39.9657L5.14668 38.1553C4.62896 37.8444 4.31271 37.28 4.31271 36.6677V16.5238C4.31271 15.9091 4.63365 15.34 5.1537 15.0314L20.0877 6.17556C21.2145 5.50593 22.6271 6.33819 22.6271 7.66788V11.0089C22.6271 11.6331 22.2991 12.207 21.7674 12.5131L11.5724 18.382C11.0406 18.6881 10.7127 19.2621 10.7127 19.8863V26.9628L22.5287 19.86C23.0394 19.5538 23.6672 19.5419 24.1873 19.8265L26.982 21.3619C28.1345 21.9956 28.1744 23.6673 27.0569 24.3585L11.5256 33.9677C11.0196 34.281 10.7103 34.8406 10.7103 35.4433L10.7127 35.448ZM33.3749 43.4573L24.4262 48.8311C23.9062 49.1444 23.2643 49.1492 22.7372 48.8479L18.209 46.2411C17.6772 45.935 17.3492 45.361 17.3492 44.7368V39.2195C17.3492 38.6073 17.6655 38.0429 18.1809 37.732L22.7185 35.0008C23.2526 34.678 23.9179 34.6827 24.4496 35.008L33.389 40.4918C34.4876 41.1662 34.4806 42.7949 33.3749 43.4597V43.4573ZM42.4642 34.7091C42.4642 36.0292 41.0727 36.8614 39.9459 36.2157L32.7424 32.0879C31.5805 31.4231 31.5945 29.7107 32.7635 29.065L35.8253 27.3718C36.3711 27.0705 36.7108 26.4869 36.7108 25.8532V20.1446C36.7108 19.5204 36.3805 18.944 35.8464 18.6379L25.4124 12.6782C24.8783 12.372 24.548 11.7957 24.548 11.1715V7.68223C24.548 6.34775 25.9653 5.51789 27.0921 6.1923L41.6255 14.8712C42.1432 15.1797 42.4618 15.7489 42.4618 16.3611V34.7114L42.4642 34.7091Z" fill="white"/>
</svg>
