<svg width="29" height="33" viewBox="0 0 29 33" fill="none" xmlns="http://www.w3.org/2000/svg">
<path d="M27.3091 7.30642L15.2945 0.296454C14.6175 -0.0988179 13.784 -0.0988179 13.1069 0.296454L1.09379 7.30642C0.416748 7.70169 0 8.43043 0 9.22097V23.2395C0 24.03 0.416748 24.7602 1.09379 25.154L13.1069 32.164C13.784 32.5592 14.6175 32.5592 15.2945 32.164L27.3091 25.154C27.9861 24.7602 28.4029 24.03 28.4029 23.2395V9.22097C28.4029 8.43043 27.9861 7.70313 27.3091 7.30642ZM6.5044 21.3048V23.1259C6.5044 23.9279 5.64246 24.4267 4.95688 24.0199L3.1249 22.9319C2.81056 22.745 2.61854 22.4058 2.61854 22.0378V9.93102C2.61854 9.56162 2.8134 9.21953 3.12917 9.03411L12.1966 3.7116C12.8808 3.30914 13.7385 3.80934 13.7385 4.60851V6.61649C13.7385 6.99164 13.5393 7.3366 13.2165 7.52058L7.0264 11.0478C6.70353 11.2318 6.5044 11.5768 6.5044 11.9519V16.2051L13.6787 11.9361C13.9888 11.7521 14.37 11.745 14.6857 11.916L16.3826 12.8388C17.0824 13.2197 17.1066 14.2244 16.4281 14.6398L6.99795 20.4151C6.69073 20.6034 6.50298 20.9397 6.50298 21.3019L6.5044 21.3048ZM20.2642 26.1185L14.8308 29.3482C14.5151 29.5365 14.1253 29.5394 13.8053 29.3583L11.0559 27.7916C10.733 27.6076 10.5339 27.2626 10.5339 26.8875V23.5715C10.5339 23.2035 10.7259 22.8643 11.0388 22.6775L13.7939 21.036C14.1182 20.842 14.5222 20.8448 14.845 21.0403L20.2727 24.3362C20.9398 24.7415 20.9355 25.7203 20.2642 26.1199V26.1185ZM25.7829 20.8606C25.7829 21.6541 24.938 22.1543 24.2539 21.7662L19.8802 19.2853C19.1747 18.8857 19.1832 17.8566 19.893 17.4685L21.752 16.4508C22.0834 16.2697 22.2896 15.919 22.2896 15.5381V12.1072C22.2896 11.732 22.0891 11.3856 21.7648 11.2016L15.4296 7.61976C15.1053 7.43578 14.9048 7.08938 14.9048 6.71423V4.61713C14.9048 3.81509 15.7653 3.31633 16.4495 3.72166L25.2737 8.93781C25.588 9.12323 25.7815 9.46532 25.7815 9.83328V20.8621L25.7829 20.8606Z" fill="#532680"/>
</svg>
